solid Mesh
  facet normal 0.999762 -0.0218156 2.67165e-19
    outer loop
      vertex -0.5 0 -1
      vertex -0.5 -1.22465e-16 -11
      vertex -0.499524 0.0218097 -1
    endloop
  endfacet
  facet normal 0.999762 -0.0218156 0
    outer loop
      vertex -0.5 -1.22465e-16 -11
      vertex -0.499524 0.0218097 -11
      vertex -0.499524 0.0218097 -1
    endloop
  endfacet
  facet normal 0.997859 -0.0654042 0
    outer loop
      vertex -0.499524 0.0218097 -1
      vertex -0.499524 0.0218097 -11
      vertex -0.498097 0.0435779 -1
    endloop
  endfacet
  facet normal 0.997859 -0.0654042 0
    outer loop
      vertex -0.499524 0.0218097 -11
      vertex -0.498097 0.0435779 -11
      vertex -0.498097 0.0435779 -1
    endloop
  endfacet
  facet normal 0.994057 -0.108865 0
    outer loop
      vertex -0.498097 0.0435779 -1
      vertex -0.498097 0.0435779 -11
      vertex -0.495722 0.0652631 -1
    endloop
  endfacet
  facet normal 0.994057 -0.108865 0
    outer loop
      vertex -0.498097 0.0435779 -11
      vertex -0.495722 0.0652631 -11
      vertex -0.495722 0.0652631 -1
    endloop
  endfacet
  facet normal 0.988361 -0.152125 0
    outer loop
      vertex -0.495722 0.0652631 -1
      vertex -0.495722 0.0652631 -11
      vertex -0.492404 0.0868241 -1
    endloop
  endfacet
  facet normal 0.988361 -0.152125 0
    outer loop
      vertex -0.495722 0.0652631 -11
      vertex -0.492404 0.0868241 -11
      vertex -0.492404 0.0868241 -1
    endloop
  endfacet
  facet normal 0.980785 -0.195089 0
    outer loop
      vertex -0.492404 0.0868241 -1
      vertex -0.492404 0.0868241 -11
      vertex -0.488148 0.10822 -1
    endloop
  endfacet
  facet normal 0.980785 -0.195089 0
    outer loop
      vertex -0.492404 0.0868241 -11
      vertex -0.488148 0.10822 -11
      vertex -0.488148 0.10822 -1
    endloop
  endfacet
  facet normal 0.971342 -0.237687 0
    outer loop
      vertex -0.488148 0.10822 -1
      vertex -0.488148 0.10822 -11
      vertex -0.482963 0.12941 -1
    endloop
  endfacet
  facet normal 0.971342 -0.237687 0
    outer loop
      vertex -0.488148 0.10822 -11
      vertex -0.482963 0.12941 -11
      vertex -0.482963 0.12941 -1
    endloop
  endfacet
  facet normal 0.96005 -0.279829 0
    outer loop
      vertex -0.482963 0.12941 -1
      vertex -0.482963 0.12941 -11
      vertex -0.476858 0.150353 -1
    endloop
  endfacet
  facet normal 0.96005 -0.279829 0
    outer loop
      vertex -0.482963 0.12941 -11
      vertex -0.476858 0.150353 -11
      vertex -0.476858 0.150353 -1
    endloop
  endfacet
  facet normal 0.94693 -0.321439 0
    outer loop
      vertex -0.476858 0.150353 -1
      vertex -0.476858 0.150353 -11
      vertex -0.469846 0.17101 -1
    endloop
  endfacet
  facet normal 0.94693 -0.321439 0
    outer loop
      vertex -0.476858 0.150353 -11
      vertex -0.469846 0.17101 -11
      vertex -0.469846 0.17101 -1
    endloop
  endfacet
  facet normal 0.932008 -0.362437 0
    outer loop
      vertex -0.469846 0.17101 -1
      vertex -0.469846 0.17101 -11
      vertex -0.46194 0.191342 -1
    endloop
  endfacet
  facet normal 0.932008 -0.362437 0
    outer loop
      vertex -0.469846 0.17101 -11
      vertex -0.46194 0.191342 -11
      vertex -0.46194 0.191342 -1
    endloop
  endfacet
  facet normal 0.915311 -0.402748 0
    outer loop
      vertex -0.46194 0.191342 -1
      vertex -0.46194 0.191342 -11
      vertex -0.453154 0.211309 -1
    endloop
  endfacet
  facet normal 0.915311 -0.402748 0
    outer loop
      vertex -0.46194 0.191342 -11
      vertex -0.453154 0.211309 -11
      vertex -0.453154 0.211309 -1
    endloop
  endfacet
  facet normal 0.896873 -0.442288 0
    outer loop
      vertex -0.453154 0.211309 -1
      vertex -0.453154 0.211309 -11
      vertex -0.443505 0.230874 -1
    endloop
  endfacet
  facet normal 0.896873 -0.442288 0
    outer loop
      vertex -0.453154 0.211309 -11
      vertex -0.443505 0.230874 -11
      vertex -0.443505 0.230874 -1
    endloop
  endfacet
  facet normal 0.876727 -0.480989 0
    outer loop
      vertex -0.443505 0.230874 -1
      vertex -0.443505 0.230874 -11
      vertex -0.433013 0.25 -1
    endloop
  endfacet
  facet normal 0.876727 -0.480989 0
    outer loop
      vertex -0.443505 0.230874 -11
      vertex -0.433013 0.25 -11
      vertex -0.433013 0.25 -1
    endloop
  endfacet
  facet normal 0.854912 -0.518773 0
    outer loop
      vertex -0.433013 0.25 -1
      vertex -0.433013 0.25 -11
      vertex -0.421696 0.26865 -1
    endloop
  endfacet
  facet normal 0.854912 -0.518773 0
    outer loop
      vertex -0.433013 0.25 -11
      vertex -0.421696 0.26865 -11
      vertex -0.421696 0.26865 -1
    endloop
  endfacet
  facet normal 0.831469 -0.555571 0
    outer loop
      vertex -0.421696 0.26865 -1
      vertex -0.421696 0.26865 -11
      vertex -0.409576 0.286788 -1
    endloop
  endfacet
  facet normal 0.831469 -0.555571 0
    outer loop
      vertex -0.421696 0.26865 -11
      vertex -0.409576 0.286788 -11
      vertex -0.409576 0.286788 -1
    endloop
  endfacet
  facet normal 0.806445 -0.591309 0
    outer loop
      vertex -0.409576 0.286788 -1
      vertex -0.409576 0.286788 -11
      vertex -0.396677 0.304381 -1
    endloop
  endfacet
  facet normal 0.806445 -0.591309 0
    outer loop
      vertex -0.409576 0.286788 -11
      vertex -0.396677 0.304381 -11
      vertex -0.396677 0.304381 -1
    endloop
  endfacet
  facet normal 0.779884 -0.625924 0
    outer loop
      vertex -0.396677 0.304381 -1
      vertex -0.396677 0.304381 -11
      vertex -0.383022 0.321394 -1
    endloop
  endfacet
  facet normal 0.779884 -0.625924 0
    outer loop
      vertex -0.396677 0.304381 -11
      vertex -0.383022 0.321394 -11
      vertex -0.383022 0.321394 -1
    endloop
  endfacet
  facet normal 0.75184 -0.659346 0
    outer loop
      vertex -0.383022 0.321394 -1
      vertex -0.383022 0.321394 -11
      vertex -0.368639 0.337795 -1
    endloop
  endfacet
  facet normal 0.75184 -0.659346 0
    outer loop
      vertex -0.383022 0.321394 -11
      vertex -0.368639 0.337795 -11
      vertex -0.368639 0.337795 -1
    endloop
  endfacet
  facet normal 0.722364 -0.691513 0
    outer loop
      vertex -0.368639 0.337795 -1
      vertex -0.368639 0.337795 -11
      vertex -0.353553 0.353553 -1
    endloop
  endfacet
  facet normal 0.722364 -0.691513 0
    outer loop
      vertex -0.368639 0.337795 -11
      vertex -0.353553 0.353553 -11
      vertex -0.353553 0.353553 -1
    endloop
  endfacet
  facet normal 0.691513 -0.722364 0
    outer loop
      vertex -0.353553 0.353553 -1
      vertex -0.353553 0.353553 -11
      vertex -0.337795 0.368639 -1
    endloop
  endfacet
  facet normal 0.691513 -0.722364 0
    outer loop
      vertex -0.353553 0.353553 -11
      vertex -0.337795 0.368639 -11
      vertex -0.337795 0.368639 -1
    endloop
  endfacet
  facet normal 0.659346 -0.75184 0
    outer loop
      vertex -0.337795 0.368639 -1
      vertex -0.337795 0.368639 -11
      vertex -0.321394 0.383022 -1
    endloop
  endfacet
  facet normal 0.659346 -0.75184 0
    outer loop
      vertex -0.337795 0.368639 -11
      vertex -0.321394 0.383022 -11
      vertex -0.321394 0.383022 -1
    endloop
  endfacet
  facet normal 0.625924 -0.779884 0
    outer loop
      vertex -0.321394 0.383022 -1
      vertex -0.321394 0.383022 -11
      vertex -0.304381 0.396677 -1
    endloop
  endfacet
  facet normal 0.625924 -0.779884 0
    outer loop
      vertex -0.321394 0.383022 -11
      vertex -0.304381 0.396677 -11
      vertex -0.304381 0.396677 -1
    endloop
  endfacet
  facet normal 0.591309 -0.806445 0
    outer loop
      vertex -0.304381 0.396677 -1
      vertex -0.304381 0.396677 -11
      vertex -0.286788 0.409576 -1
    endloop
  endfacet
  facet normal 0.591309 -0.806445 0
    outer loop
      vertex -0.304381 0.396677 -11
      vertex -0.286788 0.409576 -11
      vertex -0.286788 0.409576 -1
    endloop
  endfacet
  facet normal 0.555571 -0.831469 0
    outer loop
      vertex -0.286788 0.409576 -1
      vertex -0.286788 0.409576 -11
      vertex -0.26865 0.421696 -1
    endloop
  endfacet
  facet normal 0.555571 -0.831469 0
    outer loop
      vertex -0.286788 0.409576 -11
      vertex -0.26865 0.421696 -11
      vertex -0.26865 0.421696 -1
    endloop
  endfacet
  facet normal 0.518773 -0.854912 0
    outer loop
      vertex -0.26865 0.421696 -1
      vertex -0.26865 0.421696 -11
      vertex -0.25 0.433013 -1
    endloop
  endfacet
  facet normal 0.518773 -0.854912 0
    outer loop
      vertex -0.26865 0.421696 -11
      vertex -0.25 0.433013 -11
      vertex -0.25 0.433013 -1
    endloop
  endfacet
  facet normal 0.480989 -0.876727 0
    outer loop
      vertex -0.25 0.433013 -1
      vertex -0.25 0.433013 -11
      vertex -0.230874 0.443505 -1
    endloop
  endfacet
  facet normal 0.480989 -0.876727 0
    outer loop
      vertex -0.25 0.433013 -11
      vertex -0.230874 0.443505 -11
      vertex -0.230874 0.443505 -1
    endloop
  endfacet
  facet normal 0.442288 -0.896873 0
    outer loop
      vertex -0.230874 0.443505 -1
      vertex -0.230874 0.443505 -11
      vertex -0.211309 0.453154 -1
    endloop
  endfacet
  facet normal 0.442288 -0.896873 0
    outer loop
      vertex -0.230874 0.443505 -11
      vertex -0.211309 0.453154 -11
      vertex -0.211309 0.453154 -1
    endloop
  endfacet
  facet normal 0.402748 -0.915311 0
    outer loop
      vertex -0.211309 0.453154 -1
      vertex -0.211309 0.453154 -11
      vertex -0.191342 0.46194 -1
    endloop
  endfacet
  facet normal 0.402748 -0.915311 0
    outer loop
      vertex -0.211309 0.453154 -11
      vertex -0.191342 0.46194 -11
      vertex -0.191342 0.46194 -1
    endloop
  endfacet
  facet normal 0.362437 -0.932008 0
    outer loop
      vertex -0.191342 0.46194 -1
      vertex -0.191342 0.46194 -11
      vertex -0.17101 0.469846 -1
    endloop
  endfacet
  facet normal 0.362437 -0.932008 0
    outer loop
      vertex -0.191342 0.46194 -11
      vertex -0.17101 0.469846 -11
      vertex -0.17101 0.469846 -1
    endloop
  endfacet
  facet normal 0.321439 -0.94693 0
    outer loop
      vertex -0.17101 0.469846 -1
      vertex -0.17101 0.469846 -11
      vertex -0.150353 0.476858 -1
    endloop
  endfacet
  facet normal 0.321439 -0.94693 0
    outer loop
      vertex -0.17101 0.469846 -11
      vertex -0.150353 0.476858 -11
      vertex -0.150353 0.476858 -1
    endloop
  endfacet
  facet normal 0.279829 -0.96005 0
    outer loop
      vertex -0.150353 0.476858 -1
      vertex -0.150353 0.476858 -11
      vertex -0.12941 0.482963 -1
    endloop
  endfacet
  facet normal 0.279829 -0.96005 0
    outer loop
      vertex -0.150353 0.476858 -11
      vertex -0.12941 0.482963 -11
      vertex -0.12941 0.482963 -1
    endloop
  endfacet
  facet normal 0.237687 -0.971342 0
    outer loop
      vertex -0.12941 0.482963 -1
      vertex -0.12941 0.482963 -11
      vertex -0.10822 0.488148 -1
    endloop
  endfacet
  facet normal 0.237687 -0.971342 0
    outer loop
      vertex -0.12941 0.482963 -11
      vertex -0.10822 0.488148 -11
      vertex -0.10822 0.488148 -1
    endloop
  endfacet
  facet normal 0.195089 -0.980785 0
    outer loop
      vertex -0.10822 0.488148 -1
      vertex -0.10822 0.488148 -11
      vertex -0.0868241 0.492404 -1
    endloop
  endfacet
  facet normal 0.195089 -0.980785 0
    outer loop
      vertex -0.10822 0.488148 -11
      vertex -0.0868241 0.492404 -11
      vertex -0.0868241 0.492404 -1
    endloop
  endfacet
  facet normal 0.152125 -0.988361 0
    outer loop
      vertex -0.0868241 0.492404 -1
      vertex -0.0868241 0.492404 -11
      vertex -0.0652631 0.495722 -1
    endloop
  endfacet
  facet normal 0.152125 -0.988361 0
    outer loop
      vertex -0.0868241 0.492404 -11
      vertex -0.0652631 0.495722 -11
      vertex -0.0652631 0.495722 -1
    endloop
  endfacet
  facet normal 0.108865 -0.994057 0
    outer loop
      vertex -0.0652631 0.495722 -1
      vertex -0.0652631 0.495722 -11
      vertex -0.0435779 0.498097 -1
    endloop
  endfacet
  facet normal 0.108865 -0.994057 0
    outer loop
      vertex -0.0652631 0.495722 -11
      vertex -0.0435779 0.498097 -11
      vertex -0.0435779 0.498097 -1
    endloop
  endfacet
  facet normal 0.0654042 -0.997859 0
    outer loop
      vertex -0.0435779 0.498097 -1
      vertex -0.0435779 0.498097 -11
      vertex -0.0218097 0.499524 -1
    endloop
  endfacet
  facet normal 0.0654042 -0.997859 0
    outer loop
      vertex -0.0435779 0.498097 -11
      vertex -0.0218097 0.499524 -11
      vertex -0.0218097 0.499524 -1
    endloop
  endfacet
  facet normal 0.0218156 -0.999762 0
    outer loop
      vertex -0.0218097 0.499524 -1
      vertex -0.0218097 0.499524 -11
      vertex -3.06162e-17 0.5 -1
    endloop
  endfacet
  facet normal 0.0218156 -0.999762 0
    outer loop
      vertex -0.0218097 0.499524 -11
      vertex -3.06162e-17 0.5 -11
      vertex -3.06162e-17 0.5 -1
    endloop
  endfacet
  facet normal -0.0218156 -0.999762 0
    outer loop
      vertex -3.06162e-17 0.5 -1
      vertex -3.06162e-17 0.5 -11
      vertex 0.0218097 0.499524 -1
    endloop
  endfacet
  facet normal -0.0218156 -0.999762 0
    outer loop
      vertex -3.06162e-17 0.5 -11
      vertex 0.0218097 0.499524 -11
      vertex 0.0218097 0.499524 -1
    endloop
  endfacet
  facet normal -0.0654042 -0.997859 0
    outer loop
      vertex 0.0218097 0.499524 -1
      vertex 0.0218097 0.499524 -11
      vertex 0.0435779 0.498097 -1
    endloop
  endfacet
  facet normal -0.0654042 -0.997859 0
    outer loop
      vertex 0.0218097 0.499524 -11
      vertex 0.0435779 0.498097 -11
      vertex 0.0435779 0.498097 -1
    endloop
  endfacet
  facet normal -0.108865 -0.994057 0
    outer loop
      vertex 0.0435779 0.498097 -1
      vertex 0.0435779 0.498097 -11
      vertex 0.0652631 0.495722 -1
    endloop
  endfacet
  facet normal -0.108865 -0.994057 0
    outer loop
      vertex 0.0435779 0.498097 -11
      vertex 0.0652631 0.495722 -11
      vertex 0.0652631 0.495722 -1
    endloop
  endfacet
  facet normal -0.152125 -0.988361 0
    outer loop
      vertex 0.0652631 0.495722 -1
      vertex 0.0652631 0.495722 -11
      vertex 0.0868241 0.492404 -1
    endloop
  endfacet
  facet normal -0.152125 -0.988361 0
    outer loop
      vertex 0.0652631 0.495722 -11
      vertex 0.0868241 0.492404 -11
      vertex 0.0868241 0.492404 -1
    endloop
  endfacet
  facet normal -0.195089 -0.980785 0
    outer loop
      vertex 0.0868241 0.492404 -1
      vertex 0.0868241 0.492404 -11
      vertex 0.10822 0.488148 -1
    endloop
  endfacet
  facet normal -0.195089 -0.980785 0
    outer loop
      vertex 0.0868241 0.492404 -11
      vertex 0.10822 0.488148 -11
      vertex 0.10822 0.488148 -1
    endloop
  endfacet
  facet normal -0.237687 -0.971342 0
    outer loop
      vertex 0.10822 0.488148 -1
      vertex 0.10822 0.488148 -11
      vertex 0.12941 0.482963 -1
    endloop
  endfacet
  facet normal -0.237687 -0.971342 0
    outer loop
      vertex 0.10822 0.488148 -11
      vertex 0.12941 0.482963 -11
      vertex 0.12941 0.482963 -1
    endloop
  endfacet
  facet normal -0.279829 -0.96005 0
    outer loop
      vertex 0.12941 0.482963 -1
      vertex 0.12941 0.482963 -11
      vertex 0.150353 0.476858 -1
    endloop
  endfacet
  facet normal -0.279829 -0.96005 0
    outer loop
      vertex 0.12941 0.482963 -11
      vertex 0.150353 0.476858 -11
      vertex 0.150353 0.476858 -1
    endloop
  endfacet
  facet normal -0.321439 -0.94693 0
    outer loop
      vertex 0.150353 0.476858 -1
      vertex 0.150353 0.476858 -11
      vertex 0.17101 0.469846 -1
    endloop
  endfacet
  facet normal -0.321439 -0.94693 0
    outer loop
      vertex 0.150353 0.476858 -11
      vertex 0.17101 0.469846 -11
      vertex 0.17101 0.469846 -1
    endloop
  endfacet
  facet normal -0.362437 -0.932008 0
    outer loop
      vertex 0.17101 0.469846 -1
      vertex 0.17101 0.469846 -11
      vertex 0.191342 0.46194 -1
    endloop
  endfacet
  facet normal -0.362437 -0.932008 0
    outer loop
      vertex 0.17101 0.469846 -11
      vertex 0.191342 0.46194 -11
      vertex 0.191342 0.46194 -1
    endloop
  endfacet
  facet normal -0.402748 -0.915311 0
    outer loop
      vertex 0.191342 0.46194 -1
      vertex 0.191342 0.46194 -11
      vertex 0.211309 0.453154 -1
    endloop
  endfacet
  facet normal -0.402748 -0.915311 0
    outer loop
      vertex 0.191342 0.46194 -11
      vertex 0.211309 0.453154 -11
      vertex 0.211309 0.453154 -1
    endloop
  endfacet
  facet normal -0.442288 -0.896873 0
    outer loop
      vertex 0.211309 0.453154 -1
      vertex 0.211309 0.453154 -11
      vertex 0.230874 0.443505 -1
    endloop
  endfacet
  facet normal -0.442288 -0.896873 0
    outer loop
      vertex 0.211309 0.453154 -11
      vertex 0.230874 0.443505 -11
      vertex 0.230874 0.443505 -1
    endloop
  endfacet
  facet normal -0.480989 -0.876727 0
    outer loop
      vertex 0.230874 0.443505 -1
      vertex 0.230874 0.443505 -11
      vertex 0.25 0.433013 -1
    endloop
  endfacet
  facet normal -0.480989 -0.876727 0
    outer loop
      vertex 0.230874 0.443505 -11
      vertex 0.25 0.433013 -11
      vertex 0.25 0.433013 -1
    endloop
  endfacet
  facet normal -0.518773 -0.854912 0
    outer loop
      vertex 0.25 0.433013 -1
      vertex 0.25 0.433013 -11
      vertex 0.26865 0.421696 -1
    endloop
  endfacet
  facet normal -0.518773 -0.854912 0
    outer loop
      vertex 0.25 0.433013 -11
      vertex 0.26865 0.421696 -11
      vertex 0.26865 0.421696 -1
    endloop
  endfacet
  facet normal -0.555571 -0.831469 0
    outer loop
      vertex 0.26865 0.421696 -1
      vertex 0.26865 0.421696 -11
      vertex 0.286788 0.409576 -1
    endloop
  endfacet
  facet normal -0.555571 -0.831469 0
    outer loop
      vertex 0.26865 0.421696 -11
      vertex 0.286788 0.409576 -11
      vertex 0.286788 0.409576 -1
    endloop
  endfacet
  facet normal -0.591309 -0.806445 0
    outer loop
      vertex 0.286788 0.409576 -1
      vertex 0.286788 0.409576 -11
      vertex 0.304381 0.396677 -1
    endloop
  endfacet
  facet normal -0.591309 -0.806445 0
    outer loop
      vertex 0.286788 0.409576 -11
      vertex 0.304381 0.396677 -11
      vertex 0.304381 0.396677 -1
    endloop
  endfacet
  facet normal -0.625924 -0.779884 0
    outer loop
      vertex 0.304381 0.396677 -1
      vertex 0.304381 0.396677 -11
      vertex 0.321394 0.383022 -1
    endloop
  endfacet
  facet normal -0.625924 -0.779884 0
    outer loop
      vertex 0.304381 0.396677 -11
      vertex 0.321394 0.383022 -11
      vertex 0.321394 0.383022 -1
    endloop
  endfacet
  facet normal -0.659346 -0.75184 0
    outer loop
      vertex 0.321394 0.383022 -1
      vertex 0.321394 0.383022 -11
      vertex 0.337795 0.368639 -1
    endloop
  endfacet
  facet normal -0.659346 -0.75184 0
    outer loop
      vertex 0.321394 0.383022 -11
      vertex 0.337795 0.368639 -11
      vertex 0.337795 0.368639 -1
    endloop
  endfacet
  facet normal -0.691513 -0.722364 0
    outer loop
      vertex 0.337795 0.368639 -1
      vertex 0.337795 0.368639 -11
      vertex 0.353553 0.353553 -1
    endloop
  endfacet
  facet normal -0.691513 -0.722364 0
    outer loop
      vertex 0.337795 0.368639 -11
      vertex 0.353553 0.353553 -11
      vertex 0.353553 0.353553 -1
    endloop
  endfacet
  facet normal -0.722364 -0.691513 0
    outer loop
      vertex 0.353553 0.353553 -1
      vertex 0.353553 0.353553 -11
      vertex 0.368639 0.337795 -1
    endloop
  endfacet
  facet normal -0.722364 -0.691513 0
    outer loop
      vertex 0.353553 0.353553 -11
      vertex 0.368639 0.337795 -11
      vertex 0.368639 0.337795 -1
    endloop
  endfacet
  facet normal -0.75184 -0.659346 0
    outer loop
      vertex 0.368639 0.337795 -1
      vertex 0.368639 0.337795 -11
      vertex 0.383022 0.321394 -1
    endloop
  endfacet
  facet normal -0.75184 -0.659346 0
    outer loop
      vertex 0.368639 0.337795 -11
      vertex 0.383022 0.321394 -11
      vertex 0.383022 0.321394 -1
    endloop
  endfacet
  facet normal -0.779884 -0.625924 0
    outer loop
      vertex 0.383022 0.321394 -1
      vertex 0.383022 0.321394 -11
      vertex 0.396677 0.304381 -1
    endloop
  endfacet
  facet normal -0.779884 -0.625924 0
    outer loop
      vertex 0.383022 0.321394 -11
      vertex 0.396677 0.304381 -11
      vertex 0.396677 0.304381 -1
    endloop
  endfacet
  facet normal -0.806445 -0.591309 0
    outer loop
      vertex 0.396677 0.304381 -1
      vertex 0.396677 0.304381 -11
      vertex 0.409576 0.286788 -1
    endloop
  endfacet
  facet normal -0.806445 -0.591309 0
    outer loop
      vertex 0.396677 0.304381 -11
      vertex 0.409576 0.286788 -11
      vertex 0.409576 0.286788 -1
    endloop
  endfacet
  facet normal -0.831469 -0.555571 0
    outer loop
      vertex 0.409576 0.286788 -1
      vertex 0.409576 0.286788 -11
      vertex 0.421696 0.26865 -1
    endloop
  endfacet
  facet normal -0.831469 -0.555571 0
    outer loop
      vertex 0.409576 0.286788 -11
      vertex 0.421696 0.26865 -11
      vertex 0.421696 0.26865 -1
    endloop
  endfacet
  facet normal -0.854912 -0.518773 0
    outer loop
      vertex 0.421696 0.26865 -1
      vertex 0.421696 0.26865 -11
      vertex 0.433013 0.25 -1
    endloop
  endfacet
  facet normal -0.854912 -0.518773 0
    outer loop
      vertex 0.421696 0.26865 -11
      vertex 0.433013 0.25 -11
      vertex 0.433013 0.25 -1
    endloop
  endfacet
  facet normal -0.876727 -0.480989 0
    outer loop
      vertex 0.433013 0.25 -1
      vertex 0.433013 0.25 -11
      vertex 0.443505 0.230874 -1
    endloop
  endfacet
  facet normal -0.876727 -0.480989 0
    outer loop
      vertex 0.433013 0.25 -11
      vertex 0.443505 0.230874 -11
      vertex 0.443505 0.230874 -1
    endloop
  endfacet
  facet normal -0.896873 -0.442288 0
    outer loop
      vertex 0.443505 0.230874 -1
      vertex 0.443505 0.230874 -11
      vertex 0.453154 0.211309 -1
    endloop
  endfacet
  facet normal -0.896873 -0.442288 0
    outer loop
      vertex 0.443505 0.230874 -11
      vertex 0.453154 0.211309 -11
      vertex 0.453154 0.211309 -1
    endloop
  endfacet
  facet normal -0.915311 -0.402748 0
    outer loop
      vertex 0.453154 0.211309 -1
      vertex 0.453154 0.211309 -11
      vertex 0.46194 0.191342 -1
    endloop
  endfacet
  facet normal -0.915311 -0.402748 0
    outer loop
      vertex 0.453154 0.211309 -11
      vertex 0.46194 0.191342 -11
      vertex 0.46194 0.191342 -1
    endloop
  endfacet
  facet normal -0.932008 -0.362437 0
    outer loop
      vertex 0.46194 0.191342 -1
      vertex 0.46194 0.191342 -11
      vertex 0.469846 0.17101 -1
    endloop
  endfacet
  facet normal -0.932008 -0.362437 0
    outer loop
      vertex 0.46194 0.191342 -11
      vertex 0.469846 0.17101 -11
      vertex 0.469846 0.17101 -1
    endloop
  endfacet
  facet normal -0.94693 -0.321439 0
    outer loop
      vertex 0.469846 0.17101 -1
      vertex 0.469846 0.17101 -11
      vertex 0.476858 0.150353 -1
    endloop
  endfacet
  facet normal -0.94693 -0.321439 0
    outer loop
      vertex 0.469846 0.17101 -11
      vertex 0.476858 0.150353 -11
      vertex 0.476858 0.150353 -1
    endloop
  endfacet
  facet normal -0.96005 -0.279829 0
    outer loop
      vertex 0.476858 0.150353 -1
      vertex 0.476858 0.150353 -11
      vertex 0.482963 0.12941 -1
    endloop
  endfacet
  facet normal -0.96005 -0.279829 0
    outer loop
      vertex 0.476858 0.150353 -11
      vertex 0.482963 0.12941 -11
      vertex 0.482963 0.12941 -1
    endloop
  endfacet
  facet normal -0.971342 -0.237687 0
    outer loop
      vertex 0.482963 0.12941 -1
      vertex 0.482963 0.12941 -11
      vertex 0.488148 0.10822 -1
    endloop
  endfacet
  facet normal -0.971342 -0.237687 0
    outer loop
      vertex 0.482963 0.12941 -11
      vertex 0.488148 0.10822 -11
      vertex 0.488148 0.10822 -1
    endloop
  endfacet
  facet normal -0.980785 -0.195089 0
    outer loop
      vertex 0.488148 0.10822 -1
      vertex 0.488148 0.10822 -11
      vertex 0.492404 0.0868241 -1
    endloop
  endfacet
  facet normal -0.980785 -0.195089 0
    outer loop
      vertex 0.488148 0.10822 -11
      vertex 0.492404 0.0868241 -11
      vertex 0.492404 0.0868241 -1
    endloop
  endfacet
  facet normal -0.988361 -0.152125 0
    outer loop
      vertex 0.492404 0.0868241 -1
      vertex 0.492404 0.0868241 -11
      vertex 0.495722 0.0652631 -1
    endloop
  endfacet
  facet normal -0.988361 -0.152125 0
    outer loop
      vertex 0.492404 0.0868241 -11
      vertex 0.495722 0.0652631 -11
      vertex 0.495722 0.0652631 -1
    endloop
  endfacet
  facet normal -0.994057 -0.108865 0
    outer loop
      vertex 0.495722 0.0652631 -1
      vertex 0.495722 0.0652631 -11
      vertex 0.498097 0.0435779 -1
    endloop
  endfacet
  facet normal -0.994057 -0.108865 0
    outer loop
      vertex 0.495722 0.0652631 -11
      vertex 0.498097 0.0435779 -11
      vertex 0.498097 0.0435779 -1
    endloop
  endfacet
  facet normal -0.997859 -0.0654042 0
    outer loop
      vertex 0.498097 0.0435779 -1
      vertex 0.498097 0.0435779 -11
      vertex 0.499524 0.0218097 -1
    endloop
  endfacet
  facet normal -0.997859 -0.0654042 0
    outer loop
      vertex 0.498097 0.0435779 -11
      vertex 0.499524 0.0218097 -11
      vertex 0.499524 0.0218097 -1
    endloop
  endfacet
  facet normal -0.999762 -0.0218156 0
    outer loop
      vertex 0.499524 0.0218097 -1
      vertex 0.499524 0.0218097 -11
      vertex 0.5 6.12323e-17 -1
    endloop
  endfacet
  facet normal -0.999762 -0.0218156 0
    outer loop
      vertex 0.499524 0.0218097 -11
      vertex 0.5 6.12323e-17 -11
      vertex 0.5 6.12323e-17 -1
    endloop
  endfacet
  facet normal -0.999762 0.0218156 0
    outer loop
      vertex 0.5 6.12323e-17 -1
      vertex 0.5 6.12323e-17 -11
      vertex 0.499524 -0.0218097 -1
    endloop
  endfacet
  facet normal -0.999762 0.0218156 0
    outer loop
      vertex 0.5 6.12323e-17 -11
      vertex 0.499524 -0.0218097 -11
      vertex 0.499524 -0.0218097 -1
    endloop
  endfacet
  facet normal -0.997859 0.0654042 0
    outer loop
      vertex 0.499524 -0.0218097 -1
      vertex 0.499524 -0.0218097 -11
      vertex 0.498097 -0.0435779 -1
    endloop
  endfacet
  facet normal -0.997859 0.0654042 0
    outer loop
      vertex 0.499524 -0.0218097 -11
      vertex 0.498097 -0.0435779 -11
      vertex 0.498097 -0.0435779 -1
    endloop
  endfacet
  facet normal -0.994057 0.108865 0
    outer loop
      vertex 0.498097 -0.0435779 -1
      vertex 0.498097 -0.0435779 -11
      vertex 0.495722 -0.0652631 -1
    endloop
  endfacet
  facet normal -0.994057 0.108865 0
    outer loop
      vertex 0.498097 -0.0435779 -11
      vertex 0.495722 -0.0652631 -11
      vertex 0.495722 -0.0652631 -1
    endloop
  endfacet
  facet normal -0.988361 0.152125 0
    outer loop
      vertex 0.495722 -0.0652631 -1
      vertex 0.495722 -0.0652631 -11
      vertex 0.492404 -0.0868241 -1
    endloop
  endfacet
  facet normal -0.988361 0.152125 0
    outer loop
      vertex 0.495722 -0.0652631 -11
      vertex 0.492404 -0.0868241 -11
      vertex 0.492404 -0.0868241 -1
    endloop
  endfacet
  facet normal -0.980785 0.195089 0
    outer loop
      vertex 0.492404 -0.0868241 -1
      vertex 0.492404 -0.0868241 -11
      vertex 0.488148 -0.10822 -1
    endloop
  endfacet
  facet normal -0.980785 0.195089 0
    outer loop
      vertex 0.492404 -0.0868241 -11
      vertex 0.488148 -0.10822 -11
      vertex 0.488148 -0.10822 -1
    endloop
  endfacet
  facet normal -0.971342 0.237687 0
    outer loop
      vertex 0.488148 -0.10822 -1
      vertex 0.488148 -0.10822 -11
      vertex 0.482963 -0.12941 -1
    endloop
  endfacet
  facet normal -0.971342 0.237687 0
    outer loop
      vertex 0.488148 -0.10822 -11
      vertex 0.482963 -0.12941 -11
      vertex 0.482963 -0.12941 -1
    endloop
  endfacet
  facet normal -0.96005 0.279829 0
    outer loop
      vertex 0.482963 -0.12941 -1
      vertex 0.482963 -0.12941 -11
      vertex 0.476858 -0.150353 -1
    endloop
  endfacet
  facet normal -0.96005 0.279829 0
    outer loop
      vertex 0.482963 -0.12941 -11
      vertex 0.476858 -0.150353 -11
      vertex 0.476858 -0.150353 -1
    endloop
  endfacet
  facet normal -0.94693 0.321439 0
    outer loop
      vertex 0.476858 -0.150353 -1
      vertex 0.476858 -0.150353 -11
      vertex 0.469846 -0.17101 -1
    endloop
  endfacet
  facet normal -0.94693 0.321439 0
    outer loop
      vertex 0.476858 -0.150353 -11
      vertex 0.469846 -0.17101 -11
      vertex 0.469846 -0.17101 -1
    endloop
  endfacet
  facet normal -0.932008 0.362437 0
    outer loop
      vertex 0.469846 -0.17101 -1
      vertex 0.469846 -0.17101 -11
      vertex 0.46194 -0.191342 -1
    endloop
  endfacet
  facet normal -0.932008 0.362437 0
    outer loop
      vertex 0.469846 -0.17101 -11
      vertex 0.46194 -0.191342 -11
      vertex 0.46194 -0.191342 -1
    endloop
  endfacet
  facet normal -0.915311 0.402748 0
    outer loop
      vertex 0.46194 -0.191342 -1
      vertex 0.46194 -0.191342 -11
      vertex 0.453154 -0.211309 -1
    endloop
  endfacet
  facet normal -0.915311 0.402748 0
    outer loop
      vertex 0.46194 -0.191342 -11
      vertex 0.453154 -0.211309 -11
      vertex 0.453154 -0.211309 -1
    endloop
  endfacet
  facet normal -0.896873 0.442288 0
    outer loop
      vertex 0.453154 -0.211309 -1
      vertex 0.453154 -0.211309 -11
      vertex 0.443505 -0.230874 -1
    endloop
  endfacet
  facet normal -0.896873 0.442288 0
    outer loop
      vertex 0.453154 -0.211309 -11
      vertex 0.443505 -0.230874 -11
      vertex 0.443505 -0.230874 -1
    endloop
  endfacet
  facet normal -0.876727 0.480989 0
    outer loop
      vertex 0.443505 -0.230874 -1
      vertex 0.443505 -0.230874 -11
      vertex 0.433013 -0.25 -1
    endloop
  endfacet
  facet normal -0.876727 0.480989 0
    outer loop
      vertex 0.443505 -0.230874 -11
      vertex 0.433013 -0.25 -11
      vertex 0.433013 -0.25 -1
    endloop
  endfacet
  facet normal -0.854912 0.518773 0
    outer loop
      vertex 0.433013 -0.25 -1
      vertex 0.433013 -0.25 -11
      vertex 0.421696 -0.26865 -1
    endloop
  endfacet
  facet normal -0.854912 0.518773 0
    outer loop
      vertex 0.433013 -0.25 -11
      vertex 0.421696 -0.26865 -11
      vertex 0.421696 -0.26865 -1
    endloop
  endfacet
  facet normal -0.831469 0.555571 0
    outer loop
      vertex 0.421696 -0.26865 -1
      vertex 0.421696 -0.26865 -11
      vertex 0.409576 -0.286788 -1
    endloop
  endfacet
  facet normal -0.831469 0.555571 0
    outer loop
      vertex 0.421696 -0.26865 -11
      vertex 0.409576 -0.286788 -11
      vertex 0.409576 -0.286788 -1
    endloop
  endfacet
  facet normal -0.806445 0.591309 0
    outer loop
      vertex 0.409576 -0.286788 -1
      vertex 0.409576 -0.286788 -11
      vertex 0.396677 -0.304381 -1
    endloop
  endfacet
  facet normal -0.806445 0.591309 0
    outer loop
      vertex 0.409576 -0.286788 -11
      vertex 0.396677 -0.304381 -11
      vertex 0.396677 -0.304381 -1
    endloop
  endfacet
  facet normal -0.779884 0.625924 0
    outer loop
      vertex 0.396677 -0.304381 -1
      vertex 0.396677 -0.304381 -11
      vertex 0.383022 -0.321394 -1
    endloop
  endfacet
  facet normal -0.779884 0.625924 0
    outer loop
      vertex 0.396677 -0.304381 -11
      vertex 0.383022 -0.321394 -11
      vertex 0.383022 -0.321394 -1
    endloop
  endfacet
  facet normal -0.75184 0.659346 0
    outer loop
      vertex 0.383022 -0.321394 -1
      vertex 0.383022 -0.321394 -11
      vertex 0.368639 -0.337795 -1
    endloop
  endfacet
  facet normal -0.75184 0.659346 0
    outer loop
      vertex 0.383022 -0.321394 -11
      vertex 0.368639 -0.337795 -11
      vertex 0.368639 -0.337795 -1
    endloop
  endfacet
  facet normal -0.722364 0.691513 0
    outer loop
      vertex 0.368639 -0.337795 -1
      vertex 0.368639 -0.337795 -11
      vertex 0.353553 -0.353553 -1
    endloop
  endfacet
  facet normal -0.722364 0.691513 0
    outer loop
      vertex 0.368639 -0.337795 -11
      vertex 0.353553 -0.353553 -11
      vertex 0.353553 -0.353553 -1
    endloop
  endfacet
  facet normal -0.691513 0.722364 0
    outer loop
      vertex 0.353553 -0.353553 -1
      vertex 0.353553 -0.353553 -11
      vertex 0.337795 -0.368639 -1
    endloop
  endfacet
  facet normal -0.691513 0.722364 0
    outer loop
      vertex 0.353553 -0.353553 -11
      vertex 0.337795 -0.368639 -11
      vertex 0.337795 -0.368639 -1
    endloop
  endfacet
  facet normal -0.659346 0.75184 0
    outer loop
      vertex 0.337795 -0.368639 -1
      vertex 0.337795 -0.368639 -11
      vertex 0.321394 -0.383022 -1
    endloop
  endfacet
  facet normal -0.659346 0.75184 0
    outer loop
      vertex 0.337795 -0.368639 -11
      vertex 0.321394 -0.383022 -11
      vertex 0.321394 -0.383022 -1
    endloop
  endfacet
  facet normal -0.625924 0.779884 0
    outer loop
      vertex 0.321394 -0.383022 -1
      vertex 0.321394 -0.383022 -11
      vertex 0.304381 -0.396677 -1
    endloop
  endfacet
  facet normal -0.625924 0.779884 0
    outer loop
      vertex 0.321394 -0.383022 -11
      vertex 0.304381 -0.396677 -11
      vertex 0.304381 -0.396677 -1
    endloop
  endfacet
  facet normal -0.591309 0.806445 0
    outer loop
      vertex 0.304381 -0.396677 -1
      vertex 0.304381 -0.396677 -11
      vertex 0.286788 -0.409576 -1
    endloop
  endfacet
  facet normal -0.591309 0.806445 0
    outer loop
      vertex 0.304381 -0.396677 -11
      vertex 0.286788 -0.409576 -11
      vertex 0.286788 -0.409576 -1
    endloop
  endfacet
  facet normal -0.555571 0.831469 0
    outer loop
      vertex 0.286788 -0.409576 -1
      vertex 0.286788 -0.409576 -11
      vertex 0.26865 -0.421696 -1
    endloop
  endfacet
  facet normal -0.555571 0.831469 0
    outer loop
      vertex 0.286788 -0.409576 -11
      vertex 0.26865 -0.421696 -11
      vertex 0.26865 -0.421696 -1
    endloop
  endfacet
  facet normal -0.518773 0.854912 0
    outer loop
      vertex 0.26865 -0.421696 -1
      vertex 0.26865 -0.421696 -11
      vertex 0.25 -0.433013 -1
    endloop
  endfacet
  facet normal -0.518773 0.854912 0
    outer loop
      vertex 0.26865 -0.421696 -11
      vertex 0.25 -0.433013 -11
      vertex 0.25 -0.433013 -1
    endloop
  endfacet
  facet normal -0.480989 0.876727 0
    outer loop
      vertex 0.25 -0.433013 -1
      vertex 0.25 -0.433013 -11
      vertex 0.230874 -0.443505 -1
    endloop
  endfacet
  facet normal -0.480989 0.876727 0
    outer loop
      vertex 0.25 -0.433013 -11
      vertex 0.230874 -0.443505 -11
      vertex 0.230874 -0.443505 -1
    endloop
  endfacet
  facet normal -0.442288 0.896873 0
    outer loop
      vertex 0.230874 -0.443505 -1
      vertex 0.230874 -0.443505 -11
      vertex 0.211309 -0.453154 -1
    endloop
  endfacet
  facet normal -0.442288 0.896873 0
    outer loop
      vertex 0.230874 -0.443505 -11
      vertex 0.211309 -0.453154 -11
      vertex 0.211309 -0.453154 -1
    endloop
  endfacet
  facet normal -0.402748 0.915311 0
    outer loop
      vertex 0.211309 -0.453154 -1
      vertex 0.211309 -0.453154 -11
      vertex 0.191342 -0.46194 -1
    endloop
  endfacet
  facet normal -0.402748 0.915311 0
    outer loop
      vertex 0.211309 -0.453154 -11
      vertex 0.191342 -0.46194 -11
      vertex 0.191342 -0.46194 -1
    endloop
  endfacet
  facet normal -0.362437 0.932008 0
    outer loop
      vertex 0.191342 -0.46194 -1
      vertex 0.191342 -0.46194 -11
      vertex 0.17101 -0.469846 -1
    endloop
  endfacet
  facet normal -0.362437 0.932008 0
    outer loop
      vertex 0.191342 -0.46194 -11
      vertex 0.17101 -0.469846 -11
      vertex 0.17101 -0.469846 -1
    endloop
  endfacet
  facet normal -0.321439 0.94693 0
    outer loop
      vertex 0.17101 -0.469846 -1
      vertex 0.17101 -0.469846 -11
      vertex 0.150353 -0.476858 -1
    endloop
  endfacet
  facet normal -0.321439 0.94693 0
    outer loop
      vertex 0.17101 -0.469846 -11
      vertex 0.150353 -0.476858 -11
      vertex 0.150353 -0.476858 -1
    endloop
  endfacet
  facet normal -0.279829 0.96005 0
    outer loop
      vertex 0.150353 -0.476858 -1
      vertex 0.150353 -0.476858 -11
      vertex 0.12941 -0.482963 -1
    endloop
  endfacet
  facet normal -0.279829 0.96005 0
    outer loop
      vertex 0.150353 -0.476858 -11
      vertex 0.12941 -0.482963 -11
      vertex 0.12941 -0.482963 -1
    endloop
  endfacet
  facet normal -0.237687 0.971342 0
    outer loop
      vertex 0.12941 -0.482963 -1
      vertex 0.12941 -0.482963 -11
      vertex 0.10822 -0.488148 -1
    endloop
  endfacet
  facet normal -0.237687 0.971342 0
    outer loop
      vertex 0.12941 -0.482963 -11
      vertex 0.10822 -0.488148 -11
      vertex 0.10822 -0.488148 -1
    endloop
  endfacet
  facet normal -0.195089 0.980785 0
    outer loop
      vertex 0.10822 -0.488148 -1
      vertex 0.10822 -0.488148 -11
      vertex 0.0868241 -0.492404 -1
    endloop
  endfacet
  facet normal -0.195089 0.980785 0
    outer loop
      vertex 0.10822 -0.488148 -11
      vertex 0.0868241 -0.492404 -11
      vertex 0.0868241 -0.492404 -1
    endloop
  endfacet
  facet normal -0.152125 0.988361 0
    outer loop
      vertex 0.0868241 -0.492404 -1
      vertex 0.0868241 -0.492404 -11
      vertex 0.0652631 -0.495722 -1
    endloop
  endfacet
  facet normal -0.152125 0.988361 0
    outer loop
      vertex 0.0868241 -0.492404 -11
      vertex 0.0652631 -0.495722 -11
      vertex 0.0652631 -0.495722 -1
    endloop
  endfacet
  facet normal -0.108865 0.994057 0
    outer loop
      vertex 0.0652631 -0.495722 -1
      vertex 0.0652631 -0.495722 -11
      vertex 0.0435779 -0.498097 -1
    endloop
  endfacet
  facet normal -0.108865 0.994057 0
    outer loop
      vertex 0.0652631 -0.495722 -11
      vertex 0.0435779 -0.498097 -11
      vertex 0.0435779 -0.498097 -1
    endloop
  endfacet
  facet normal -0.0654042 0.997859 0
    outer loop
      vertex 0.0435779 -0.498097 -1
      vertex 0.0435779 -0.498097 -11
      vertex 0.0218097 -0.499524 -1
    endloop
  endfacet
  facet normal -0.0654042 0.997859 0
    outer loop
      vertex 0.0435779 -0.498097 -11
      vertex 0.0218097 -0.499524 -11
      vertex 0.0218097 -0.499524 -1
    endloop
  endfacet
  facet normal -0.0218156 0.999762 0
    outer loop
      vertex 0.0218097 -0.499524 -1
      vertex 0.0218097 -0.499524 -11
      vertex 9.18485e-17 -0.5 -1
    endloop
  endfacet
  facet normal -0.0218156 0.999762 0
    outer loop
      vertex 0.0218097 -0.499524 -11
      vertex 9.18485e-17 -0.5 -11
      vertex 9.18485e-17 -0.5 -1
    endloop
  endfacet
  facet normal 0.0218156 0.999762 0
    outer loop
      vertex 9.18485e-17 -0.5 -1
      vertex 9.18485e-17 -0.5 -11
      vertex -0.0218097 -0.499524 -1
    endloop
  endfacet
  facet normal 0.0218156 0.999762 0
    outer loop
      vertex 9.18485e-17 -0.5 -11
      vertex -0.0218097 -0.499524 -11
      vertex -0.0218097 -0.499524 -1
    endloop
  endfacet
  facet normal 0.0654042 0.997859 0
    outer loop
      vertex -0.0218097 -0.499524 -1
      vertex -0.0218097 -0.499524 -11
      vertex -0.0435779 -0.498097 -1
    endloop
  endfacet
  facet normal 0.0654042 0.997859 0
    outer loop
      vertex -0.0218097 -0.499524 -11
      vertex -0.0435779 -0.498097 -11
      vertex -0.0435779 -0.498097 -1
    endloop
  endfacet
  facet normal 0.108865 0.994057 0
    outer loop
      vertex -0.0435779 -0.498097 -1
      vertex -0.0435779 -0.498097 -11
      vertex -0.0652631 -0.495722 -1
    endloop
  endfacet
  facet normal 0.108865 0.994057 0
    outer loop
      vertex -0.0435779 -0.498097 -11
      vertex -0.0652631 -0.495722 -11
      vertex -0.0652631 -0.495722 -1
    endloop
  endfacet
  facet normal 0.152125 0.988361 0
    outer loop
      vertex -0.0652631 -0.495722 -1
      vertex -0.0652631 -0.495722 -11
      vertex -0.0868241 -0.492404 -1
    endloop
  endfacet
  facet normal 0.152125 0.988361 0
    outer loop
      vertex -0.0652631 -0.495722 -11
      vertex -0.0868241 -0.492404 -11
      vertex -0.0868241 -0.492404 -1
    endloop
  endfacet
  facet normal 0.195089 0.980785 0
    outer loop
      vertex -0.0868241 -0.492404 -1
      vertex -0.0868241 -0.492404 -11
      vertex -0.10822 -0.488148 -1
    endloop
  endfacet
  facet normal 0.195089 0.980785 0
    outer loop
      vertex -0.0868241 -0.492404 -11
      vertex -0.10822 -0.488148 -11
      vertex -0.10822 -0.488148 -1
    endloop
  endfacet
  facet normal 0.237687 0.971342 0
    outer loop
      vertex -0.10822 -0.488148 -1
      vertex -0.10822 -0.488148 -11
      vertex -0.12941 -0.482963 -1
    endloop
  endfacet
  facet normal 0.237687 0.971342 0
    outer loop
      vertex -0.10822 -0.488148 -11
      vertex -0.12941 -0.482963 -11
      vertex -0.12941 -0.482963 -1
    endloop
  endfacet
  facet normal 0.279829 0.96005 0
    outer loop
      vertex -0.12941 -0.482963 -1
      vertex -0.12941 -0.482963 -11
      vertex -0.150353 -0.476858 -1
    endloop
  endfacet
  facet normal 0.279829 0.96005 0
    outer loop
      vertex -0.12941 -0.482963 -11
      vertex -0.150353 -0.476858 -11
      vertex -0.150353 -0.476858 -1
    endloop
  endfacet
  facet normal 0.321439 0.94693 0
    outer loop
      vertex -0.150353 -0.476858 -1
      vertex -0.150353 -0.476858 -11
      vertex -0.17101 -0.469846 -1
    endloop
  endfacet
  facet normal 0.321439 0.94693 0
    outer loop
      vertex -0.150353 -0.476858 -11
      vertex -0.17101 -0.469846 -11
      vertex -0.17101 -0.469846 -1
    endloop
  endfacet
  facet normal 0.362437 0.932008 0
    outer loop
      vertex -0.17101 -0.469846 -1
      vertex -0.17101 -0.469846 -11
      vertex -0.191342 -0.46194 -1
    endloop
  endfacet
  facet normal 0.362437 0.932008 0
    outer loop
      vertex -0.17101 -0.469846 -11
      vertex -0.191342 -0.46194 -11
      vertex -0.191342 -0.46194 -1
    endloop
  endfacet
  facet normal 0.402748 0.915311 0
    outer loop
      vertex -0.191342 -0.46194 -1
      vertex -0.191342 -0.46194 -11
      vertex -0.211309 -0.453154 -1
    endloop
  endfacet
  facet normal 0.402748 0.915311 0
    outer loop
      vertex -0.191342 -0.46194 -11
      vertex -0.211309 -0.453154 -11
      vertex -0.211309 -0.453154 -1
    endloop
  endfacet
  facet normal 0.442288 0.896873 0
    outer loop
      vertex -0.211309 -0.453154 -1
      vertex -0.211309 -0.453154 -11
      vertex -0.230874 -0.443505 -1
    endloop
  endfacet
  facet normal 0.442288 0.896873 0
    outer loop
      vertex -0.211309 -0.453154 -11
      vertex -0.230874 -0.443505 -11
      vertex -0.230874 -0.443505 -1
    endloop
  endfacet
  facet normal 0.480989 0.876727 0
    outer loop
      vertex -0.230874 -0.443505 -1
      vertex -0.230874 -0.443505 -11
      vertex -0.25 -0.433013 -1
    endloop
  endfacet
  facet normal 0.480989 0.876727 0
    outer loop
      vertex -0.230874 -0.443505 -11
      vertex -0.25 -0.433013 -11
      vertex -0.25 -0.433013 -1
    endloop
  endfacet
  facet normal 0.518773 0.854912 0
    outer loop
      vertex -0.25 -0.433013 -1
      vertex -0.25 -0.433013 -11
      vertex -0.26865 -0.421696 -1
    endloop
  endfacet
  facet normal 0.518773 0.854912 0
    outer loop
      vertex -0.25 -0.433013 -11
      vertex -0.26865 -0.421696 -11
      vertex -0.26865 -0.421696 -1
    endloop
  endfacet
  facet normal 0.555571 0.831469 0
    outer loop
      vertex -0.26865 -0.421696 -1
      vertex -0.26865 -0.421696 -11
      vertex -0.286788 -0.409576 -1
    endloop
  endfacet
  facet normal 0.555571 0.831469 0
    outer loop
      vertex -0.26865 -0.421696 -11
      vertex -0.286788 -0.409576 -11
      vertex -0.286788 -0.409576 -1
    endloop
  endfacet
  facet normal 0.591309 0.806445 0
    outer loop
      vertex -0.286788 -0.409576 -1
      vertex -0.286788 -0.409576 -11
      vertex -0.304381 -0.396677 -1
    endloop
  endfacet
  facet normal 0.591309 0.806445 0
    outer loop
      vertex -0.286788 -0.409576 -11
      vertex -0.304381 -0.396677 -11
      vertex -0.304381 -0.396677 -1
    endloop
  endfacet
  facet normal 0.625924 0.779884 0
    outer loop
      vertex -0.304381 -0.396677 -1
      vertex -0.304381 -0.396677 -11
      vertex -0.321394 -0.383022 -1
    endloop
  endfacet
  facet normal 0.625924 0.779884 0
    outer loop
      vertex -0.304381 -0.396677 -11
      vertex -0.321394 -0.383022 -11
      vertex -0.321394 -0.383022 -1
    endloop
  endfacet
  facet normal 0.659346 0.75184 0
    outer loop
      vertex -0.321394 -0.383022 -1
      vertex -0.321394 -0.383022 -11
      vertex -0.337795 -0.368639 -1
    endloop
  endfacet
  facet normal 0.659346 0.75184 0
    outer loop
      vertex -0.321394 -0.383022 -11
      vertex -0.337795 -0.368639 -11
      vertex -0.337795 -0.368639 -1
    endloop
  endfacet
  facet normal 0.691513 0.722364 0
    outer loop
      vertex -0.337795 -0.368639 -1
      vertex -0.337795 -0.368639 -11
      vertex -0.353553 -0.353553 -1
    endloop
  endfacet
  facet normal 0.691513 0.722364 0
    outer loop
      vertex -0.337795 -0.368639 -11
      vertex -0.353553 -0.353553 -11
      vertex -0.353553 -0.353553 -1
    endloop
  endfacet
  facet normal 0.722364 0.691513 0
    outer loop
      vertex -0.353553 -0.353553 -1
      vertex -0.353553 -0.353553 -11
      vertex -0.368639 -0.337795 -1
    endloop
  endfacet
  facet normal 0.722364 0.691513 0
    outer loop
      vertex -0.353553 -0.353553 -11
      vertex -0.368639 -0.337795 -11
      vertex -0.368639 -0.337795 -1
    endloop
  endfacet
  facet normal 0.75184 0.659346 0
    outer loop
      vertex -0.368639 -0.337795 -1
      vertex -0.368639 -0.337795 -11
      vertex -0.383022 -0.321394 -1
    endloop
  endfacet
  facet normal 0.75184 0.659346 0
    outer loop
      vertex -0.368639 -0.337795 -11
      vertex -0.383022 -0.321394 -11
      vertex -0.383022 -0.321394 -1
    endloop
  endfacet
  facet normal 0.779884 0.625924 0
    outer loop
      vertex -0.383022 -0.321394 -1
      vertex -0.383022 -0.321394 -11
      vertex -0.396677 -0.304381 -1
    endloop
  endfacet
  facet normal 0.779884 0.625924 0
    outer loop
      vertex -0.383022 -0.321394 -11
      vertex -0.396677 -0.304381 -11
      vertex -0.396677 -0.304381 -1
    endloop
  endfacet
  facet normal 0.806445 0.591309 0
    outer loop
      vertex -0.396677 -0.304381 -1
      vertex -0.396677 -0.304381 -11
      vertex -0.409576 -0.286788 -1
    endloop
  endfacet
  facet normal 0.806445 0.591309 0
    outer loop
      vertex -0.396677 -0.304381 -11
      vertex -0.409576 -0.286788 -11
      vertex -0.409576 -0.286788 -1
    endloop
  endfacet
  facet normal 0.831469 0.555571 0
    outer loop
      vertex -0.409576 -0.286788 -1
      vertex -0.409576 -0.286788 -11
      vertex -0.421696 -0.26865 -1
    endloop
  endfacet
  facet normal 0.831469 0.555571 0
    outer loop
      vertex -0.409576 -0.286788 -11
      vertex -0.421696 -0.26865 -11
      vertex -0.421696 -0.26865 -1
    endloop
  endfacet
  facet normal 0.854912 0.518773 0
    outer loop
      vertex -0.421696 -0.26865 -1
      vertex -0.421696 -0.26865 -11
      vertex -0.433013 -0.25 -1
    endloop
  endfacet
  facet normal 0.854912 0.518773 0
    outer loop
      vertex -0.421696 -0.26865 -11
      vertex -0.433013 -0.25 -11
      vertex -0.433013 -0.25 -1
    endloop
  endfacet
  facet normal 0.876727 0.480989 0
    outer loop
      vertex -0.433013 -0.25 -1
      vertex -0.433013 -0.25 -11
      vertex -0.443505 -0.230874 -1
    endloop
  endfacet
  facet normal 0.876727 0.480989 0
    outer loop
      vertex -0.433013 -0.25 -11
      vertex -0.443505 -0.230874 -11
      vertex -0.443505 -0.230874 -1
    endloop
  endfacet
  facet normal 0.896873 0.442288 0
    outer loop
      vertex -0.443505 -0.230874 -1
      vertex -0.443505 -0.230874 -11
      vertex -0.453154 -0.211309 -1
    endloop
  endfacet
  facet normal 0.896873 0.442288 0
    outer loop
      vertex -0.443505 -0.230874 -11
      vertex -0.453154 -0.211309 -11
      vertex -0.453154 -0.211309 -1
    endloop
  endfacet
  facet normal 0.915311 0.402748 0
    outer loop
      vertex -0.453154 -0.211309 -1
      vertex -0.453154 -0.211309 -11
      vertex -0.46194 -0.191342 -1
    endloop
  endfacet
  facet normal 0.915311 0.402748 0
    outer loop
      vertex -0.453154 -0.211309 -11
      vertex -0.46194 -0.191342 -11
      vertex -0.46194 -0.191342 -1
    endloop
  endfacet
  facet normal 0.932008 0.362437 0
    outer loop
      vertex -0.46194 -0.191342 -1
      vertex -0.46194 -0.191342 -11
      vertex -0.469846 -0.17101 -1
    endloop
  endfacet
  facet normal 0.932008 0.362437 0
    outer loop
      vertex -0.46194 -0.191342 -11
      vertex -0.469846 -0.17101 -11
      vertex -0.469846 -0.17101 -1
    endloop
  endfacet
  facet normal 0.94693 0.321439 0
    outer loop
      vertex -0.469846 -0.17101 -1
      vertex -0.469846 -0.17101 -11
      vertex -0.476858 -0.150353 -1
    endloop
  endfacet
  facet normal 0.94693 0.321439 0
    outer loop
      vertex -0.469846 -0.17101 -11
      vertex -0.476858 -0.150353 -11
      vertex -0.476858 -0.150353 -1
    endloop
  endfacet
  facet normal 0.96005 0.279829 0
    outer loop
      vertex -0.476858 -0.150353 -1
      vertex -0.476858 -0.150353 -11
      vertex -0.482963 -0.12941 -1
    endloop
  endfacet
  facet normal 0.96005 0.279829 0
    outer loop
      vertex -0.476858 -0.150353 -11
      vertex -0.482963 -0.12941 -11
      vertex -0.482963 -0.12941 -1
    endloop
  endfacet
  facet normal 0.971342 0.237687 0
    outer loop
      vertex -0.482963 -0.12941 -1
      vertex -0.482963 -0.12941 -11
      vertex -0.488148 -0.10822 -1
    endloop
  endfacet
  facet normal 0.971342 0.237687 0
    outer loop
      vertex -0.482963 -0.12941 -11
      vertex -0.488148 -0.10822 -11
      vertex -0.488148 -0.10822 -1
    endloop
  endfacet
  facet normal 0.980785 0.195089 0
    outer loop
      vertex -0.488148 -0.10822 -1
      vertex -0.488148 -0.10822 -11
      vertex -0.492404 -0.0868241 -1
    endloop
  endfacet
  facet normal 0.980785 0.195089 0
    outer loop
      vertex -0.488148 -0.10822 -11
      vertex -0.492404 -0.0868241 -11
      vertex -0.492404 -0.0868241 -1
    endloop
  endfacet
  facet normal 0.988361 0.152125 0
    outer loop
      vertex -0.492404 -0.0868241 -1
      vertex -0.492404 -0.0868241 -11
      vertex -0.495722 -0.0652631 -1
    endloop
  endfacet
  facet normal 0.988361 0.152125 0
    outer loop
      vertex -0.492404 -0.0868241 -11
      vertex -0.495722 -0.0652631 -11
      vertex -0.495722 -0.0652631 -1
    endloop
  endfacet
  facet normal 0.994057 0.108865 0
    outer loop
      vertex -0.495722 -0.0652631 -1
      vertex -0.495722 -0.0652631 -11
      vertex -0.498097 -0.0435779 -1
    endloop
  endfacet
  facet normal 0.994057 0.108865 0
    outer loop
      vertex -0.495722 -0.0652631 -11
      vertex -0.498097 -0.0435779 -11
      vertex -0.498097 -0.0435779 -1
    endloop
  endfacet
  facet normal 0.997859 0.0654042 0
    outer loop
      vertex -0.498097 -0.0435779 -1
      vertex -0.498097 -0.0435779 -11
      vertex -0.499524 -0.0218097 -1
    endloop
  endfacet
  facet normal 0.997859 0.0654042 0
    outer loop
      vertex -0.498097 -0.0435779 -11
      vertex -0.499524 -0.0218097 -11
      vertex -0.499524 -0.0218097 -1
    endloop
  endfacet
  facet normal 0.999762 0.0218156 0
    outer loop
      vertex -0.499524 -0.0218097 -1
      vertex -0.499524 -0.0218097 -11
      vertex -0.5 0 -1
    endloop
  endfacet
  facet normal 0.999762 0.0218156 -2.66612e-19
    outer loop
      vertex -0.499524 -0.0218097 -11
      vertex -0.5 -1.22465e-16 -11
      vertex -0.5 0 -1
    endloop
  endfacet
endsolid Mesh
