solid elecFace1
  facet normal 1 0 0
    outer loop
      vertex 0.001 -4.35779e-5 -0.000498097
      vertex 0.001 -2.18097e-5 -0.000499524
      vertex 0.001 0 0
    endloop
  endfacet
  facet normal 1 0 0
    outer loop
      vertex 0.001 -2.18097e-5 -0.000499524
      vertex 0.001 0 -0.0005
      vertex 0.001 0 0
    endloop
  endfacet
  facet normal 1 0 0
    outer loop
      vertex 0.001 0 0
      vertex 0.001 0 -0.0005
      vertex 0.001 2.18097e-5 -0.000499524
    endloop
  endfacet
  facet normal 1 0 0
    outer loop
      vertex 0.001 -0.00010822 -0.000488148
      vertex 0.001 -8.68241e-5 -0.000492404
      vertex 0.001 0 0
    endloop
  endfacet
  facet normal 1 0 0
    outer loop
      vertex 0.001 -8.68241e-5 -0.000492404
      vertex 0.001 -6.52631e-5 -0.000495722
      vertex 0.001 0 0
    endloop
  endfacet
  facet normal 1 0 0
    outer loop
      vertex 0.001 0 0
      vertex 0.001 -6.52631e-5 -0.000495722
      vertex 0.001 -4.35779e-5 -0.000498097
    endloop
  endfacet
  facet normal 1 0 0
    outer loop
      vertex 0.001 -0.00017101 -0.000469846
      vertex 0.001 -0.000150353 -0.000476858
      vertex 0.001 0 0
    endloop
  endfacet
  facet normal 1 0 0
    outer loop
      vertex 0.001 -0.000150353 -0.000476858
      vertex 0.001 -0.00012941 -0.000482963
      vertex 0.001 0 0
    endloop
  endfacet
  facet normal 1 0 0
    outer loop
      vertex 0.001 0 0
      vertex 0.001 -0.00012941 -0.000482963
      vertex 0.001 -0.00010822 -0.000488148
    endloop
  endfacet
  facet normal 1 0 0
    outer loop
      vertex 0.001 -0.000230874 -0.000443505
      vertex 0.001 -0.000211309 -0.000453154
      vertex 0.001 0 0
    endloop
  endfacet
  facet normal 1 0 0
    outer loop
      vertex 0.001 -0.000211309 -0.000453154
      vertex 0.001 -0.000191342 -0.00046194
      vertex 0.001 0 0
    endloop
  endfacet
  facet normal 1 0 0
    outer loop
      vertex 0.001 0 0
      vertex 0.001 -0.000191342 -0.00046194
      vertex 0.001 -0.00017101 -0.000469846
    endloop
  endfacet
  facet normal 1 0 0
    outer loop
      vertex 0.001 -0.000286788 -0.000409576
      vertex 0.001 -0.00026865 -0.000421696
      vertex 0.001 0 0
    endloop
  endfacet
  facet normal 1 0 0
    outer loop
      vertex 0.001 -0.00026865 -0.000421696
      vertex 0.001 -0.00025 -0.000433013
      vertex 0.001 0 0
    endloop
  endfacet
  facet normal 1 0 0
    outer loop
      vertex 0.001 0 0
      vertex 0.001 -0.00025 -0.000433013
      vertex 0.001 -0.000230874 -0.000443505
    endloop
  endfacet
  facet normal 1 0 0
    outer loop
      vertex 0.001 -0.000337795 -0.000368639
      vertex 0.001 -0.000321394 -0.000383022
      vertex 0.001 0 0
    endloop
  endfacet
  facet normal 1 0 0
    outer loop
      vertex 0.001 -0.000321394 -0.000383022
      vertex 0.001 -0.000304381 -0.000396677
      vertex 0.001 0 0
    endloop
  endfacet
  facet normal 1 0 0
    outer loop
      vertex 0.001 0 0
      vertex 0.001 -0.000304381 -0.000396677
      vertex 0.001 -0.000286788 -0.000409576
    endloop
  endfacet
  facet normal 1 0 0
    outer loop
      vertex 0.001 -0.000383022 -0.000321394
      vertex 0.001 -0.000368639 -0.000337795
      vertex 0.001 0 0
    endloop
  endfacet
  facet normal 1 0 0
    outer loop
      vertex 0.001 -0.000368639 -0.000337795
      vertex 0.001 -0.000353553 -0.000353553
      vertex 0.001 0 0
    endloop
  endfacet
  facet normal 1 0 0
    outer loop
      vertex 0.001 0 0
      vertex 0.001 -0.000353553 -0.000353553
      vertex 0.001 -0.000337795 -0.000368639
    endloop
  endfacet
  facet normal 1 0 0
    outer loop
      vertex 0.001 -0.000421696 -0.00026865
      vertex 0.001 -0.000409576 -0.000286788
      vertex 0.001 0 0
    endloop
  endfacet
  facet normal 1 0 0
    outer loop
      vertex 0.001 -0.000409576 -0.000286788
      vertex 0.001 -0.000396677 -0.000304381
      vertex 0.001 0 0
    endloop
  endfacet
  facet normal 1 0 0
    outer loop
      vertex 0.001 0 0
      vertex 0.001 -0.000396677 -0.000304381
      vertex 0.001 -0.000383022 -0.000321394
    endloop
  endfacet
  facet normal 1 0 0
    outer loop
      vertex 0.001 -0.000453154 -0.000211309
      vertex 0.001 -0.000443505 -0.000230874
      vertex 0.001 0 0
    endloop
  endfacet
  facet normal 1 0 0
    outer loop
      vertex 0.001 -0.000443505 -0.000230874
      vertex 0.001 -0.000433013 -0.00025
      vertex 0.001 0 0
    endloop
  endfacet
  facet normal 1 0 0
    outer loop
      vertex 0.001 0 0
      vertex 0.001 -0.000433013 -0.00025
      vertex 0.001 -0.000421696 -0.00026865
    endloop
  endfacet
  facet normal 1 0 0
    outer loop
      vertex 0.001 -0.000476858 -0.000150353
      vertex 0.001 -0.000469846 -0.00017101
      vertex 0.001 0 0
    endloop
  endfacet
  facet normal 1 0 0
    outer loop
      vertex 0.001 -0.000469846 -0.00017101
      vertex 0.001 -0.00046194 -0.000191342
      vertex 0.001 0 0
    endloop
  endfacet
  facet normal 1 0 0
    outer loop
      vertex 0.001 0 0
      vertex 0.001 -0.00046194 -0.000191342
      vertex 0.001 -0.000453154 -0.000211309
    endloop
  endfacet
  facet normal 1 0 0
    outer loop
      vertex 0.001 -0.000492404 -8.68241e-5
      vertex 0.001 -0.000488148 -0.00010822
      vertex 0.001 0 0
    endloop
  endfacet
  facet normal 1 0 0
    outer loop
      vertex 0.001 -0.000488148 -0.00010822
      vertex 0.001 -0.000482963 -0.00012941
      vertex 0.001 0 0
    endloop
  endfacet
  facet normal 1 0 0
    outer loop
      vertex 0.001 0 0
      vertex 0.001 -0.000482963 -0.00012941
      vertex 0.001 -0.000476858 -0.000150353
    endloop
  endfacet
  facet normal 1 0 0
    outer loop
      vertex 0.001 -0.000499524 -2.18097e-5
      vertex 0.001 -0.000498097 -4.35779e-5
      vertex 0.001 0 0
    endloop
  endfacet
  facet normal 1 0 0
    outer loop
      vertex 0.001 -0.000498097 -4.35779e-5
      vertex 0.001 -0.000495722 -6.52631e-5
      vertex 0.001 0 0
    endloop
  endfacet
  facet normal 1 0 0
    outer loop
      vertex 0.001 0 0
      vertex 0.001 -0.000495722 -6.52631e-5
      vertex 0.001 -0.000492404 -8.68241e-5
    endloop
  endfacet
  facet normal 1 0 0
    outer loop
      vertex 0.001 -0.000498097 4.35779e-5
      vertex 0.001 -0.000499524 2.18097e-5
      vertex 0.001 0 0
    endloop
  endfacet
  facet normal 1 0 0
    outer loop
      vertex 0.001 -0.000499524 2.18097e-5
      vertex 0.001 -0.0005 1.6263e-19
      vertex 0.001 0 0
    endloop
  endfacet
  facet normal 1 0 0
    outer loop
      vertex 0.001 0 0
      vertex 0.001 -0.0005 1.6263e-19
      vertex 0.001 -0.000499524 -2.18097e-5
    endloop
  endfacet
  facet normal 1 0 0
    outer loop
      vertex 0.001 -0.000488148 0.00010822
      vertex 0.001 -0.000492404 8.68241e-5
      vertex 0.001 0 0
    endloop
  endfacet
  facet normal 1 0 0
    outer loop
      vertex 0.001 -0.000492404 8.68241e-5
      vertex 0.001 -0.000495722 6.52631e-5
      vertex 0.001 0 0
    endloop
  endfacet
  facet normal 1 0 0
    outer loop
      vertex 0.001 0 0
      vertex 0.001 -0.000495722 6.52631e-5
      vertex 0.001 -0.000498097 4.35779e-5
    endloop
  endfacet
  facet normal 1 0 0
    outer loop
      vertex 0.001 -0.000469846 0.00017101
      vertex 0.001 -0.000476858 0.000150353
      vertex 0.001 0 0
    endloop
  endfacet
  facet normal 1 0 0
    outer loop
      vertex 0.001 -0.000476858 0.000150353
      vertex 0.001 -0.000482963 0.00012941
      vertex 0.001 0 0
    endloop
  endfacet
  facet normal 1 0 0
    outer loop
      vertex 0.001 0 0
      vertex 0.001 -0.000482963 0.00012941
      vertex 0.001 -0.000488148 0.00010822
    endloop
  endfacet
  facet normal 1 0 0
    outer loop
      vertex 0.001 -0.000443505 0.000230874
      vertex 0.001 -0.000453154 0.000211309
      vertex 0.001 0 0
    endloop
  endfacet
  facet normal 1 0 0
    outer loop
      vertex 0.001 -0.000453154 0.000211309
      vertex 0.001 -0.00046194 0.000191342
      vertex 0.001 0 0
    endloop
  endfacet
  facet normal 1 0 0
    outer loop
      vertex 0.001 0 0
      vertex 0.001 -0.00046194 0.000191342
      vertex 0.001 -0.000469846 0.00017101
    endloop
  endfacet
  facet normal 1 0 0
    outer loop
      vertex 0.001 -0.000409576 0.000286788
      vertex 0.001 -0.000421696 0.00026865
      vertex 0.001 0 0
    endloop
  endfacet
  facet normal 1 0 0
    outer loop
      vertex 0.001 -0.000421696 0.00026865
      vertex 0.001 -0.000433013 0.00025
      vertex 0.001 0 0
    endloop
  endfacet
  facet normal 1 0 0
    outer loop
      vertex 0.001 0 0
      vertex 0.001 -0.000433013 0.00025
      vertex 0.001 -0.000443505 0.000230874
    endloop
  endfacet
  facet normal 1 0 0
    outer loop
      vertex 0.001 -0.000368639 0.000337795
      vertex 0.001 -0.000383022 0.000321394
      vertex 0.001 0 0
    endloop
  endfacet
  facet normal 1 0 0
    outer loop
      vertex 0.001 -0.000383022 0.000321394
      vertex 0.001 -0.000396677 0.000304381
      vertex 0.001 0 0
    endloop
  endfacet
  facet normal 1 0 0
    outer loop
      vertex 0.001 0 0
      vertex 0.001 -0.000396677 0.000304381
      vertex 0.001 -0.000409576 0.000286788
    endloop
  endfacet
  facet normal 1 0 0
    outer loop
      vertex 0.001 -0.000321394 0.000383022
      vertex 0.001 -0.000337795 0.000368639
      vertex 0.001 0 0
    endloop
  endfacet
  facet normal 1 0 0
    outer loop
      vertex 0.001 -0.000337795 0.000368639
      vertex 0.001 -0.000353553 0.000353553
      vertex 0.001 0 0
    endloop
  endfacet
  facet normal 1 0 0
    outer loop
      vertex 0.001 0 0
      vertex 0.001 -0.000353553 0.000353553
      vertex 0.001 -0.000368639 0.000337795
    endloop
  endfacet
  facet normal 1 0 0
    outer loop
      vertex 0.001 -0.00026865 0.000421696
      vertex 0.001 -0.000286788 0.000409576
      vertex 0.001 0 0
    endloop
  endfacet
  facet normal 1 0 0
    outer loop
      vertex 0.001 -0.000286788 0.000409576
      vertex 0.001 -0.000304381 0.000396677
      vertex 0.001 0 0
    endloop
  endfacet
  facet normal 1 0 0
    outer loop
      vertex 0.001 0 0
      vertex 0.001 -0.000304381 0.000396677
      vertex 0.001 -0.000321394 0.000383022
    endloop
  endfacet
  facet normal 1 0 0
    outer loop
      vertex 0.001 -0.000211309 0.000453154
      vertex 0.001 -0.000230874 0.000443505
      vertex 0.001 0 0
    endloop
  endfacet
  facet normal 1 0 0
    outer loop
      vertex 0.001 -0.000230874 0.000443505
      vertex 0.001 -0.00025 0.000433013
      vertex 0.001 0 0
    endloop
  endfacet
  facet normal 1 0 0
    outer loop
      vertex 0.001 0 0
      vertex 0.001 -0.00025 0.000433013
      vertex 0.001 -0.00026865 0.000421696
    endloop
  endfacet
  facet normal 1 0 0
    outer loop
      vertex 0.001 -0.000150353 0.000476858
      vertex 0.001 -0.00017101 0.000469846
      vertex 0.001 0 0
    endloop
  endfacet
  facet normal 1 0 0
    outer loop
      vertex 0.001 -0.00017101 0.000469846
      vertex 0.001 -0.000191342 0.00046194
      vertex 0.001 0 0
    endloop
  endfacet
  facet normal 1 0 0
    outer loop
      vertex 0.001 0 0
      vertex 0.001 -0.000191342 0.00046194
      vertex 0.001 -0.000211309 0.000453154
    endloop
  endfacet
  facet normal 1 0 0
    outer loop
      vertex 0.001 -8.68241e-5 0.000492404
      vertex 0.001 -0.00010822 0.000488148
      vertex 0.001 0 0
    endloop
  endfacet
  facet normal 1 0 0
    outer loop
      vertex 0.001 -0.00010822 0.000488148
      vertex 0.001 -0.00012941 0.000482963
      vertex 0.001 0 0
    endloop
  endfacet
  facet normal 1 0 0
    outer loop
      vertex 0.001 0 0
      vertex 0.001 -0.00012941 0.000482963
      vertex 0.001 -0.000150353 0.000476858
    endloop
  endfacet
  facet normal 1 0 0
    outer loop
      vertex 0.001 -2.18097e-5 0.000499524
      vertex 0.001 -4.35779e-5 0.000498097
      vertex 0.001 0 0
    endloop
  endfacet
  facet normal 1 0 0
    outer loop
      vertex 0.001 -4.35779e-5 0.000498097
      vertex 0.001 -6.52631e-5 0.000495722
      vertex 0.001 0 0
    endloop
  endfacet
  facet normal 1 0 0
    outer loop
      vertex 0.001 0 0
      vertex 0.001 -6.52631e-5 0.000495722
      vertex 0.001 -8.68241e-5 0.000492404
    endloop
  endfacet
  facet normal 1 0 0
    outer loop
      vertex 0.001 4.35779e-5 0.000498097
      vertex 0.001 2.18097e-5 0.000499524
      vertex 0.001 0 0
    endloop
  endfacet
  facet normal 1 0 0
    outer loop
      vertex 0.001 2.18097e-5 0.000499524
      vertex 0.001 1.45717e-19 0.0005
      vertex 0.001 0 0
    endloop
  endfacet
  facet normal 1 0 0
    outer loop
      vertex 0.001 0 0
      vertex 0.001 1.45717e-19 0.0005
      vertex 0.001 -2.18097e-5 0.000499524
    endloop
  endfacet
  facet normal 1 0 0
    outer loop
      vertex 0.001 0.00010822 0.000488148
      vertex 0.001 8.68241e-5 0.000492404
      vertex 0.001 0 0
    endloop
  endfacet
  facet normal 1 0 0
    outer loop
      vertex 0.001 8.68241e-5 0.000492404
      vertex 0.001 6.52631e-5 0.000495722
      vertex 0.001 0 0
    endloop
  endfacet
  facet normal 1 0 0
    outer loop
      vertex 0.001 0 0
      vertex 0.001 6.52631e-5 0.000495722
      vertex 0.001 4.35779e-5 0.000498097
    endloop
  endfacet
  facet normal 1 0 0
    outer loop
      vertex 0.001 0.00017101 0.000469846
      vertex 0.001 0.000150353 0.000476858
      vertex 0.001 0 0
    endloop
  endfacet
  facet normal 1 0 0
    outer loop
      vertex 0.001 0.000150353 0.000476858
      vertex 0.001 0.00012941 0.000482963
      vertex 0.001 0 0
    endloop
  endfacet
  facet normal 1 0 0
    outer loop
      vertex 0.001 0 0
      vertex 0.001 0.00012941 0.000482963
      vertex 0.001 0.00010822 0.000488148
    endloop
  endfacet
  facet normal 1 0 0
    outer loop
      vertex 0.001 0.000230874 0.000443505
      vertex 0.001 0.000211309 0.000453154
      vertex 0.001 0 0
    endloop
  endfacet
  facet normal 1 0 0
    outer loop
      vertex 0.001 0.000211309 0.000453154
      vertex 0.001 0.000191342 0.00046194
      vertex 0.001 0 0
    endloop
  endfacet
  facet normal 1 0 0
    outer loop
      vertex 0.001 0 0
      vertex 0.001 0.000191342 0.00046194
      vertex 0.001 0.00017101 0.000469846
    endloop
  endfacet
  facet normal 1 0 0
    outer loop
      vertex 0.001 0.000286788 0.000409576
      vertex 0.001 0.00026865 0.000421696
      vertex 0.001 0 0
    endloop
  endfacet
  facet normal 1 0 0
    outer loop
      vertex 0.001 0.00026865 0.000421696
      vertex 0.001 0.00025 0.000433013
      vertex 0.001 0 0
    endloop
  endfacet
  facet normal 1 0 0
    outer loop
      vertex 0.001 0 0
      vertex 0.001 0.00025 0.000433013
      vertex 0.001 0.000230874 0.000443505
    endloop
  endfacet
  facet normal 1 0 0
    outer loop
      vertex 0.001 0.000337795 0.000368639
      vertex 0.001 0.000321394 0.000383022
      vertex 0.001 0 0
    endloop
  endfacet
  facet normal 1 0 0
    outer loop
      vertex 0.001 0.000321394 0.000383022
      vertex 0.001 0.000304381 0.000396677
      vertex 0.001 0 0
    endloop
  endfacet
  facet normal 1 0 0
    outer loop
      vertex 0.001 0 0
      vertex 0.001 0.000304381 0.000396677
      vertex 0.001 0.000286788 0.000409576
    endloop
  endfacet
  facet normal 1 0 0
    outer loop
      vertex 0.001 0.000383022 0.000321394
      vertex 0.001 0.000368639 0.000337795
      vertex 0.001 0 0
    endloop
  endfacet
  facet normal 1 0 0
    outer loop
      vertex 0.001 0.000368639 0.000337795
      vertex 0.001 0.000353553 0.000353553
      vertex 0.001 0 0
    endloop
  endfacet
  facet normal 1 0 0
    outer loop
      vertex 0.001 0 0
      vertex 0.001 0.000353553 0.000353553
      vertex 0.001 0.000337795 0.000368639
    endloop
  endfacet
  facet normal 1 0 0
    outer loop
      vertex 0.001 0.000421696 0.00026865
      vertex 0.001 0.000409576 0.000286788
      vertex 0.001 0 0
    endloop
  endfacet
  facet normal 1 0 0
    outer loop
      vertex 0.001 0.000409576 0.000286788
      vertex 0.001 0.000396677 0.000304381
      vertex 0.001 0 0
    endloop
  endfacet
  facet normal 1 0 0
    outer loop
      vertex 0.001 0 0
      vertex 0.001 0.000396677 0.000304381
      vertex 0.001 0.000383022 0.000321394
    endloop
  endfacet
  facet normal 1 0 0
    outer loop
      vertex 0.001 0.000453154 0.000211309
      vertex 0.001 0.000443505 0.000230874
      vertex 0.001 0 0
    endloop
  endfacet
  facet normal 1 0 0
    outer loop
      vertex 0.001 0.000443505 0.000230874
      vertex 0.001 0.000433013 0.00025
      vertex 0.001 0 0
    endloop
  endfacet
  facet normal 1 0 0
    outer loop
      vertex 0.001 0 0
      vertex 0.001 0.000433013 0.00025
      vertex 0.001 0.000421696 0.00026865
    endloop
  endfacet
  facet normal 1 0 0
    outer loop
      vertex 0.001 0.000476858 0.000150353
      vertex 0.001 0.000469846 0.00017101
      vertex 0.001 0 0
    endloop
  endfacet
  facet normal 1 0 0
    outer loop
      vertex 0.001 0.000469846 0.00017101
      vertex 0.001 0.00046194 0.000191342
      vertex 0.001 0 0
    endloop
  endfacet
  facet normal 1 0 0
    outer loop
      vertex 0.001 0 0
      vertex 0.001 0.00046194 0.000191342
      vertex 0.001 0.000453154 0.000211309
    endloop
  endfacet
  facet normal 1 0 0
    outer loop
      vertex 0.001 0.000492404 8.68241e-5
      vertex 0.001 0.000488148 0.00010822
      vertex 0.001 0 0
    endloop
  endfacet
  facet normal 1 0 0
    outer loop
      vertex 0.001 0.000488148 0.00010822
      vertex 0.001 0.000482963 0.00012941
      vertex 0.001 0 0
    endloop
  endfacet
  facet normal 1 0 0
    outer loop
      vertex 0.001 0 0
      vertex 0.001 0.000482963 0.00012941
      vertex 0.001 0.000476858 0.000150353
    endloop
  endfacet
  facet normal 1 0 0
    outer loop
      vertex 0.001 0.000499524 2.18097e-5
      vertex 0.001 0.000498097 4.35779e-5
      vertex 0.001 0 0
    endloop
  endfacet
  facet normal 1 0 0
    outer loop
      vertex 0.001 0.000498097 4.35779e-5
      vertex 0.001 0.000495722 6.52631e-5
      vertex 0.001 0 0
    endloop
  endfacet
  facet normal 1 0 0
    outer loop
      vertex 0.001 0 0
      vertex 0.001 0.000495722 6.52631e-5
      vertex 0.001 0.000492404 8.68241e-5
    endloop
  endfacet
  facet normal 1 0 0
    outer loop
      vertex 0.001 0.000498097 -4.35779e-5
      vertex 0.001 0.000499524 -2.18097e-5
      vertex 0.001 0 0
    endloop
  endfacet
  facet normal 1 0 0
    outer loop
      vertex 0.001 0.000499524 -2.18097e-5
      vertex 0.001 0.0005 0
      vertex 0.001 0 0
    endloop
  endfacet
  facet normal 1 0 0
    outer loop
      vertex 0.001 0 0
      vertex 0.001 0.0005 0
      vertex 0.001 0.000499524 2.18097e-5
    endloop
  endfacet
  facet normal 1 0 0
    outer loop
      vertex 0.001 0.000488148 -0.00010822
      vertex 0.001 0.000492404 -8.68241e-5
      vertex 0.001 0 0
    endloop
  endfacet
  facet normal 1 0 0
    outer loop
      vertex 0.001 0.000492404 -8.68241e-5
      vertex 0.001 0.000495722 -6.52631e-5
      vertex 0.001 0 0
    endloop
  endfacet
  facet normal 1 0 0
    outer loop
      vertex 0.001 0 0
      vertex 0.001 0.000495722 -6.52631e-5
      vertex 0.001 0.000498097 -4.35779e-5
    endloop
  endfacet
  facet normal 1 0 0
    outer loop
      vertex 0.001 0.000469846 -0.00017101
      vertex 0.001 0.000476858 -0.000150353
      vertex 0.001 0 0
    endloop
  endfacet
  facet normal 1 0 0
    outer loop
      vertex 0.001 0.000476858 -0.000150353
      vertex 0.001 0.000482963 -0.00012941
      vertex 0.001 0 0
    endloop
  endfacet
  facet normal 1 0 0
    outer loop
      vertex 0.001 0 0
      vertex 0.001 0.000482963 -0.00012941
      vertex 0.001 0.000488148 -0.00010822
    endloop
  endfacet
  facet normal 1 0 0
    outer loop
      vertex 0.001 0.000443505 -0.000230874
      vertex 0.001 0.000453154 -0.000211309
      vertex 0.001 0 0
    endloop
  endfacet
  facet normal 1 0 0
    outer loop
      vertex 0.001 0.000453154 -0.000211309
      vertex 0.001 0.00046194 -0.000191342
      vertex 0.001 0 0
    endloop
  endfacet
  facet normal 1 0 0
    outer loop
      vertex 0.001 0 0
      vertex 0.001 0.00046194 -0.000191342
      vertex 0.001 0.000469846 -0.00017101
    endloop
  endfacet
  facet normal 1 0 0
    outer loop
      vertex 0.001 0.000409576 -0.000286788
      vertex 0.001 0.000421696 -0.00026865
      vertex 0.001 0 0
    endloop
  endfacet
  facet normal 1 0 0
    outer loop
      vertex 0.001 0.000421696 -0.00026865
      vertex 0.001 0.000433013 -0.00025
      vertex 0.001 0 0
    endloop
  endfacet
  facet normal 1 0 0
    outer loop
      vertex 0.001 0 0
      vertex 0.001 0.000433013 -0.00025
      vertex 0.001 0.000443505 -0.000230874
    endloop
  endfacet
  facet normal 1 0 0
    outer loop
      vertex 0.001 0.000368639 -0.000337795
      vertex 0.001 0.000383022 -0.000321394
      vertex 0.001 0 0
    endloop
  endfacet
  facet normal 1 0 0
    outer loop
      vertex 0.001 0.000383022 -0.000321394
      vertex 0.001 0.000396677 -0.000304381
      vertex 0.001 0 0
    endloop
  endfacet
  facet normal 1 0 0
    outer loop
      vertex 0.001 0 0
      vertex 0.001 0.000396677 -0.000304381
      vertex 0.001 0.000409576 -0.000286788
    endloop
  endfacet
  facet normal 1 0 0
    outer loop
      vertex 0.001 0.000321394 -0.000383022
      vertex 0.001 0.000337795 -0.000368639
      vertex 0.001 0 0
    endloop
  endfacet
  facet normal 1 0 0
    outer loop
      vertex 0.001 0.000337795 -0.000368639
      vertex 0.001 0.000353553 -0.000353553
      vertex 0.001 0 0
    endloop
  endfacet
  facet normal 1 0 0
    outer loop
      vertex 0.001 0 0
      vertex 0.001 0.000353553 -0.000353553
      vertex 0.001 0.000368639 -0.000337795
    endloop
  endfacet
  facet normal 1 0 0
    outer loop
      vertex 0.001 0.00026865 -0.000421696
      vertex 0.001 0.000286788 -0.000409576
      vertex 0.001 0 0
    endloop
  endfacet
  facet normal 1 0 0
    outer loop
      vertex 0.001 0.000286788 -0.000409576
      vertex 0.001 0.000304381 -0.000396677
      vertex 0.001 0 0
    endloop
  endfacet
  facet normal 1 0 0
    outer loop
      vertex 0.001 0 0
      vertex 0.001 0.000304381 -0.000396677
      vertex 0.001 0.000321394 -0.000383022
    endloop
  endfacet
  facet normal 1 0 0
    outer loop
      vertex 0.001 0.000211309 -0.000453154
      vertex 0.001 0.000230874 -0.000443505
      vertex 0.001 0 0
    endloop
  endfacet
  facet normal 1 0 0
    outer loop
      vertex 0.001 0.000230874 -0.000443505
      vertex 0.001 0.00025 -0.000433013
      vertex 0.001 0 0
    endloop
  endfacet
  facet normal 1 0 0
    outer loop
      vertex 0.001 0 0
      vertex 0.001 0.00025 -0.000433013
      vertex 0.001 0.00026865 -0.000421696
    endloop
  endfacet
  facet normal 1 0 0
    outer loop
      vertex 0.001 0.000150353 -0.000476858
      vertex 0.001 0.00017101 -0.000469846
      vertex 0.001 0 0
    endloop
  endfacet
  facet normal 1 0 0
    outer loop
      vertex 0.001 0.00017101 -0.000469846
      vertex 0.001 0.000191342 -0.00046194
      vertex 0.001 0 0
    endloop
  endfacet
  facet normal 1 0 0
    outer loop
      vertex 0.001 0 0
      vertex 0.001 0.000191342 -0.00046194
      vertex 0.001 0.000211309 -0.000453154
    endloop
  endfacet
  facet normal 1 0 0
    outer loop
      vertex 0.001 8.68241e-5 -0.000492404
      vertex 0.001 0.00010822 -0.000488148
      vertex 0.001 0 0
    endloop
  endfacet
  facet normal 1 0 0
    outer loop
      vertex 0.001 0.00010822 -0.000488148
      vertex 0.001 0.00012941 -0.000482963
      vertex 0.001 0 0
    endloop
  endfacet
  facet normal 1 0 0
    outer loop
      vertex 0.001 0 0
      vertex 0.001 0.00012941 -0.000482963
      vertex 0.001 0.000150353 -0.000476858
    endloop
  endfacet
  facet normal 1 0 0
    outer loop
      vertex 0.001 2.18097e-5 -0.000499524
      vertex 0.001 4.35779e-5 -0.000498097
      vertex 0.001 0 0
    endloop
  endfacet
  facet normal 1 0 0
    outer loop
      vertex 0.001 4.35779e-5 -0.000498097
      vertex 0.001 6.52631e-5 -0.000495722
      vertex 0.001 0 0
    endloop
  endfacet
  facet normal 1 0 0
    outer loop
      vertex 0.001 0 0
      vertex 0.001 6.52631e-5 -0.000495722
      vertex 0.001 8.68241e-5 -0.000492404
    endloop
  endfacet
endsolid elecFace1
