solid outletTop
  facet normal 0 0 1
    outer loop
      vertex -0.0503078 0.00440136 0.053
      vertex -0.0504519 0.00220278 0.053
      vertex 0 0 0.053
    endloop
  endfacet
  facet normal 0 0 1
    outer loop
      vertex -0.0504519 0.00220278 0.053
      vertex -0.0505 0 0.053
      vertex 0 0 0.053
    endloop
  endfacet
  facet normal 0 0 1
    outer loop
      vertex 0 0 0.053
      vertex -0.0505 0 0.053
      vertex -0.0504519 -0.00220278 0.053
    endloop
  endfacet
  facet normal 0 0 1
    outer loop
      vertex -0.0493029 0.0109302 0.053
      vertex -0.0497328 0.00876923 0.053
      vertex 0 0 0.053
    endloop
  endfacet
  facet normal 0 0 1
    outer loop
      vertex -0.0497328 0.00876923 0.053
      vertex -0.050068 0.00659157 0.053
      vertex 0 0 0.053
    endloop
  endfacet
  facet normal 0 0 1
    outer loop
      vertex 0 0 0.053
      vertex -0.050068 0.00659157 0.053
      vertex -0.0503078 0.00440136 0.053
    endloop
  endfacet
  facet normal 0 0 1
    outer loop
      vertex -0.0474545 0.017272 0.053
      vertex -0.0481627 0.0151856 0.053
      vertex 0 0 0.053
    endloop
  endfacet
  facet normal 0 0 1
    outer loop
      vertex -0.0481627 0.0151856 0.053
      vertex -0.0487793 0.0130704 0.053
      vertex 0 0 0.053
    endloop
  endfacet
  facet normal 0 0 1
    outer loop
      vertex 0 0 0.053
      vertex -0.0487793 0.0130704 0.053
      vertex -0.0493029 0.0109302 0.053
    endloop
  endfacet
  facet normal 0 0 1
    outer loop
      vertex -0.044794 0.0233183 0.053
      vertex -0.0457685 0.0213422 0.053
      vertex 0 0 0.053
    endloop
  endfacet
  facet normal 0 0 1
    outer loop
      vertex -0.0457685 0.0213422 0.053
      vertex -0.0466559 0.0193255 0.053
      vertex 0 0 0.053
    endloop
  endfacet
  facet normal 0 0 1
    outer loop
      vertex 0 0 0.053
      vertex -0.0466559 0.0193255 0.053
      vertex -0.0474545 0.017272 0.053
    endloop
  endfacet
  facet normal 0 0 1
    outer loop
      vertex -0.0413672 0.0289656 0.053
      vertex -0.0425913 0.0271336 0.053
      vertex 0 0 0.053
    endloop
  endfacet
  facet normal 0 0 1
    outer loop
      vertex -0.0425913 0.0271336 0.053
      vertex -0.0437343 0.02525 0.053
      vertex 0 0 0.053
    endloop
  endfacet
  facet normal 0 0 1
    outer loop
      vertex 0 0 0.053
      vertex -0.0437343 0.02525 0.053
      vertex -0.044794 0.0233183 0.053
    endloop
  endfacet
  facet normal 0 0 1
    outer loop
      vertex -0.0372325 0.0341173 0.053
      vertex -0.0386852 0.0324608 0.053
      vertex 0 0 0.053
    endloop
  endfacet
  facet normal 0 0 1
    outer loop
      vertex -0.0386852 0.0324608 0.053
      vertex -0.0400643 0.0307425 0.053
      vertex 0 0 0.053
    endloop
  endfacet
  facet normal 0 0 1
    outer loop
      vertex 0 0 0.053
      vertex -0.0400643 0.0307425 0.053
      vertex -0.0413672 0.0289656 0.053
    endloop
  endfacet
  facet normal 0 0 1
    outer loop
      vertex -0.0324608 0.0386852 0.053
      vertex -0.0341173 0.0372325 0.053
      vertex 0 0 0.053
    endloop
  endfacet
  facet normal 0 0 1
    outer loop
      vertex -0.0341173 0.0372325 0.053
      vertex -0.0357089 0.0357089 0.053
      vertex 0 0 0.053
    endloop
  endfacet
  facet normal 0 0 1
    outer loop
      vertex 0 0 0.053
      vertex -0.0357089 0.0357089 0.053
      vertex -0.0372325 0.0341173 0.053
    endloop
  endfacet
  facet normal 0 0 1
    outer loop
      vertex -0.0271336 0.0425913 0.053
      vertex -0.0289656 0.0413672 0.053
      vertex 0 0 0.053
    endloop
  endfacet
  facet normal 0 0 1
    outer loop
      vertex -0.0289656 0.0413672 0.053
      vertex -0.0307425 0.0400643 0.053
      vertex 0 0 0.053
    endloop
  endfacet
  facet normal 0 0 1
    outer loop
      vertex 0 0 0.053
      vertex -0.0307425 0.0400643 0.053
      vertex -0.0324608 0.0386852 0.053
    endloop
  endfacet
  facet normal 0 0 1
    outer loop
      vertex -0.0213422 0.0457685 0.053
      vertex -0.0233183 0.044794 0.053
      vertex 0 0 0.053
    endloop
  endfacet
  facet normal 0 0 1
    outer loop
      vertex -0.0233183 0.044794 0.053
      vertex -0.02525 0.0437343 0.053
      vertex 0 0 0.053
    endloop
  endfacet
  facet normal 0 0 1
    outer loop
      vertex 0 0 0.053
      vertex -0.02525 0.0437343 0.053
      vertex -0.0271336 0.0425913 0.053
    endloop
  endfacet
  facet normal 0 0 1
    outer loop
      vertex -0.0151856 0.0481627 0.053
      vertex -0.017272 0.0474545 0.053
      vertex 0 0 0.053
    endloop
  endfacet
  facet normal 0 0 1
    outer loop
      vertex -0.017272 0.0474545 0.053
      vertex -0.0193255 0.0466559 0.053
      vertex 0 0 0.053
    endloop
  endfacet
  facet normal 0 0 1
    outer loop
      vertex 0 0 0.053
      vertex -0.0193255 0.0466559 0.053
      vertex -0.0213422 0.0457685 0.053
    endloop
  endfacet
  facet normal 0 0 1
    outer loop
      vertex -0.00876923 0.0497328 0.053
      vertex -0.0109302 0.0493029 0.053
      vertex 0 0 0.053
    endloop
  endfacet
  facet normal 0 0 1
    outer loop
      vertex -0.0109302 0.0493029 0.053
      vertex -0.0130704 0.0487793 0.053
      vertex 0 0 0.053
    endloop
  endfacet
  facet normal 0 0 1
    outer loop
      vertex 0 0 0.053
      vertex -0.0130704 0.0487793 0.053
      vertex -0.0151856 0.0481627 0.053
    endloop
  endfacet
  facet normal 0 0 1
    outer loop
      vertex -0.00220278 0.0504519 0.053
      vertex -0.00440136 0.0503078 0.053
      vertex 0 0 0.053
    endloop
  endfacet
  facet normal 0 0 1
    outer loop
      vertex -0.00440136 0.0503078 0.053
      vertex -0.00659157 0.050068 0.053
      vertex 0 0 0.053
    endloop
  endfacet
  facet normal 0 0 1
    outer loop
      vertex 0 0 0.053
      vertex -0.00659157 0.050068 0.053
      vertex -0.00876923 0.0497328 0.053
    endloop
  endfacet
  facet normal 0 0 1
    outer loop
      vertex 0.00440136 0.0503078 0.053
      vertex 0.00220278 0.0504519 0.053
      vertex 0 0 0.053
    endloop
  endfacet
  facet normal 0 0 1
    outer loop
      vertex 0.00220278 0.0504519 0.053
      vertex -1.40166e-18 0.0505 0.053
      vertex 0 0 0.053
    endloop
  endfacet
  facet normal 0 0 1
    outer loop
      vertex 0 0 0.053
      vertex -1.40166e-18 0.0505 0.053
      vertex -0.00220278 0.0504519 0.053
    endloop
  endfacet
  facet normal 0 0 1
    outer loop
      vertex 0.0109302 0.0493029 0.053
      vertex 0.00876923 0.0497328 0.053
      vertex 0 0 0.053
    endloop
  endfacet
  facet normal 0 0 1
    outer loop
      vertex 0.00876923 0.0497328 0.053
      vertex 0.00659157 0.050068 0.053
      vertex 0 0 0.053
    endloop
  endfacet
  facet normal 0 0 1
    outer loop
      vertex 0 0 0.053
      vertex 0.00659157 0.050068 0.053
      vertex 0.00440136 0.0503078 0.053
    endloop
  endfacet
  facet normal 0 0 1
    outer loop
      vertex 0.017272 0.0474545 0.053
      vertex 0.0151856 0.0481627 0.053
      vertex 0 0 0.053
    endloop
  endfacet
  facet normal 0 0 1
    outer loop
      vertex 0.0151856 0.0481627 0.053
      vertex 0.0130704 0.0487793 0.053
      vertex 0 0 0.053
    endloop
  endfacet
  facet normal 0 0 1
    outer loop
      vertex 0 0 0.053
      vertex 0.0130704 0.0487793 0.053
      vertex 0.0109302 0.0493029 0.053
    endloop
  endfacet
  facet normal 0 0 1
    outer loop
      vertex 0.0233183 0.044794 0.053
      vertex 0.0213422 0.0457685 0.053
      vertex 0 0 0.053
    endloop
  endfacet
  facet normal 0 0 1
    outer loop
      vertex 0.0213422 0.0457685 0.053
      vertex 0.0193255 0.0466559 0.053
      vertex 0 0 0.053
    endloop
  endfacet
  facet normal 0 0 1
    outer loop
      vertex 0 0 0.053
      vertex 0.0193255 0.0466559 0.053
      vertex 0.017272 0.0474545 0.053
    endloop
  endfacet
  facet normal 0 0 1
    outer loop
      vertex 0.0289656 0.0413672 0.053
      vertex 0.0271336 0.0425913 0.053
      vertex 0 0 0.053
    endloop
  endfacet
  facet normal 0 0 1
    outer loop
      vertex 0.0271336 0.0425913 0.053
      vertex 0.02525 0.0437343 0.053
      vertex 0 0 0.053
    endloop
  endfacet
  facet normal 0 0 1
    outer loop
      vertex 0 0 0.053
      vertex 0.02525 0.0437343 0.053
      vertex 0.0233183 0.044794 0.053
    endloop
  endfacet
  facet normal 0 0 1
    outer loop
      vertex 0.0341173 0.0372325 0.053
      vertex 0.0324608 0.0386852 0.053
      vertex 0 0 0.053
    endloop
  endfacet
  facet normal 0 0 1
    outer loop
      vertex 0.0324608 0.0386852 0.053
      vertex 0.0307425 0.0400643 0.053
      vertex 0 0 0.053
    endloop
  endfacet
  facet normal 0 0 1
    outer loop
      vertex 0 0 0.053
      vertex 0.0307425 0.0400643 0.053
      vertex 0.0289656 0.0413672 0.053
    endloop
  endfacet
  facet normal 0 0 1
    outer loop
      vertex 0.0386852 0.0324608 0.053
      vertex 0.0372325 0.0341173 0.053
      vertex 0 0 0.053
    endloop
  endfacet
  facet normal 0 0 1
    outer loop
      vertex 0.0372325 0.0341173 0.053
      vertex 0.0357089 0.0357089 0.053
      vertex 0 0 0.053
    endloop
  endfacet
  facet normal 0 0 1
    outer loop
      vertex 0 0 0.053
      vertex 0.0357089 0.0357089 0.053
      vertex 0.0341173 0.0372325 0.053
    endloop
  endfacet
  facet normal 0 0 1
    outer loop
      vertex 0.0425913 0.0271336 0.053
      vertex 0.0413672 0.0289656 0.053
      vertex 0 0 0.053
    endloop
  endfacet
  facet normal 0 0 1
    outer loop
      vertex 0.0413672 0.0289656 0.053
      vertex 0.0400643 0.0307425 0.053
      vertex 0 0 0.053
    endloop
  endfacet
  facet normal 0 0 1
    outer loop
      vertex 0 0 0.053
      vertex 0.0400643 0.0307425 0.053
      vertex 0.0386852 0.0324608 0.053
    endloop
  endfacet
  facet normal 0 0 1
    outer loop
      vertex 0.0457685 0.0213422 0.053
      vertex 0.044794 0.0233183 0.053
      vertex 0 0 0.053
    endloop
  endfacet
  facet normal 0 0 1
    outer loop
      vertex 0.044794 0.0233183 0.053
      vertex 0.0437343 0.02525 0.053
      vertex 0 0 0.053
    endloop
  endfacet
  facet normal 0 0 1
    outer loop
      vertex 0 0 0.053
      vertex 0.0437343 0.02525 0.053
      vertex 0.0425913 0.0271336 0.053
    endloop
  endfacet
  facet normal 0 0 1
    outer loop
      vertex 0.0481627 0.0151856 0.053
      vertex 0.0474545 0.017272 0.053
      vertex 0 0 0.053
    endloop
  endfacet
  facet normal 0 0 1
    outer loop
      vertex 0.0474545 0.017272 0.053
      vertex 0.0466559 0.0193255 0.053
      vertex 0 0 0.053
    endloop
  endfacet
  facet normal 0 0 1
    outer loop
      vertex 0 0 0.053
      vertex 0.0466559 0.0193255 0.053
      vertex 0.0457685 0.0213422 0.053
    endloop
  endfacet
  facet normal 0 0 1
    outer loop
      vertex 0.0497328 0.00876923 0.053
      vertex 0.0493029 0.0109302 0.053
      vertex 0 0 0.053
    endloop
  endfacet
  facet normal 0 0 1
    outer loop
      vertex 0.0493029 0.0109302 0.053
      vertex 0.0487793 0.0130704 0.053
      vertex 0 0 0.053
    endloop
  endfacet
  facet normal 0 0 1
    outer loop
      vertex 0 0 0.053
      vertex 0.0487793 0.0130704 0.053
      vertex 0.0481627 0.0151856 0.053
    endloop
  endfacet
  facet normal 0 0 1
    outer loop
      vertex 0.0504519 0.00220278 0.053
      vertex 0.0503078 0.00440136 0.053
      vertex 0 0 0.053
    endloop
  endfacet
  facet normal 0 0 1
    outer loop
      vertex 0.0503078 0.00440136 0.053
      vertex 0.050068 0.00659157 0.053
      vertex 0 0 0.053
    endloop
  endfacet
  facet normal 0 0 1
    outer loop
      vertex 0 0 0.053
      vertex 0.050068 0.00659157 0.053
      vertex 0.0497328 0.00876923 0.053
    endloop
  endfacet
  facet normal 0 0 1
    outer loop
      vertex 0.0503078 -0.00440136 0.053
      vertex 0.0504519 -0.00220278 0.053
      vertex 0 0 0.053
    endloop
  endfacet
  facet normal 0 0 1
    outer loop
      vertex 0.0504519 -0.00220278 0.053
      vertex 0.0505 1.47174e-17 0.053
      vertex 0 0 0.053
    endloop
  endfacet
  facet normal 0 0 1
    outer loop
      vertex 0 0 0.053
      vertex 0.0505 1.47174e-17 0.053
      vertex 0.0504519 0.00220278 0.053
    endloop
  endfacet
  facet normal 0 0 1
    outer loop
      vertex 0.0493029 -0.0109302 0.053
      vertex 0.0497328 -0.00876923 0.053
      vertex 0 0 0.053
    endloop
  endfacet
  facet normal 0 0 1
    outer loop
      vertex 0.0497328 -0.00876923 0.053
      vertex 0.050068 -0.00659157 0.053
      vertex 0 0 0.053
    endloop
  endfacet
  facet normal 0 0 1
    outer loop
      vertex 0 0 0.053
      vertex 0.050068 -0.00659157 0.053
      vertex 0.0503078 -0.00440136 0.053
    endloop
  endfacet
  facet normal 0 0 1
    outer loop
      vertex 0.0474545 -0.017272 0.053
      vertex 0.0481627 -0.0151856 0.053
      vertex 0 0 0.053
    endloop
  endfacet
  facet normal 0 0 1
    outer loop
      vertex 0.0481627 -0.0151856 0.053
      vertex 0.0487793 -0.0130704 0.053
      vertex 0 0 0.053
    endloop
  endfacet
  facet normal 0 0 1
    outer loop
      vertex 0 0 0.053
      vertex 0.0487793 -0.0130704 0.053
      vertex 0.0493029 -0.0109302 0.053
    endloop
  endfacet
  facet normal 0 0 1
    outer loop
      vertex 0.044794 -0.0233183 0.053
      vertex 0.0457685 -0.0213422 0.053
      vertex 0 0 0.053
    endloop
  endfacet
  facet normal 0 0 1
    outer loop
      vertex 0.0457685 -0.0213422 0.053
      vertex 0.0466559 -0.0193255 0.053
      vertex 0 0 0.053
    endloop
  endfacet
  facet normal 0 0 1
    outer loop
      vertex 0 0 0.053
      vertex 0.0466559 -0.0193255 0.053
      vertex 0.0474545 -0.017272 0.053
    endloop
  endfacet
  facet normal 0 0 1
    outer loop
      vertex 0.0413672 -0.0289656 0.053
      vertex 0.0425913 -0.0271336 0.053
      vertex 0 0 0.053
    endloop
  endfacet
  facet normal 0 0 1
    outer loop
      vertex 0.0425913 -0.0271336 0.053
      vertex 0.0437343 -0.02525 0.053
      vertex 0 0 0.053
    endloop
  endfacet
  facet normal 0 0 1
    outer loop
      vertex 0 0 0.053
      vertex 0.0437343 -0.02525 0.053
      vertex 0.044794 -0.0233183 0.053
    endloop
  endfacet
  facet normal 0 0 1
    outer loop
      vertex 0.0372325 -0.0341173 0.053
      vertex 0.0386852 -0.0324608 0.053
      vertex 0 0 0.053
    endloop
  endfacet
  facet normal 0 0 1
    outer loop
      vertex 0.0386852 -0.0324608 0.053
      vertex 0.0400643 -0.0307425 0.053
      vertex 0 0 0.053
    endloop
  endfacet
  facet normal 0 0 1
    outer loop
      vertex 0 0 0.053
      vertex 0.0400643 -0.0307425 0.053
      vertex 0.0413672 -0.0289656 0.053
    endloop
  endfacet
  facet normal 0 0 1
    outer loop
      vertex 0.0324608 -0.0386852 0.053
      vertex 0.0341173 -0.0372325 0.053
      vertex 0 0 0.053
    endloop
  endfacet
  facet normal 0 0 1
    outer loop
      vertex 0.0341173 -0.0372325 0.053
      vertex 0.0357089 -0.0357089 0.053
      vertex 0 0 0.053
    endloop
  endfacet
  facet normal 0 0 1
    outer loop
      vertex 0 0 0.053
      vertex 0.0357089 -0.0357089 0.053
      vertex 0.0372325 -0.0341173 0.053
    endloop
  endfacet
  facet normal 0 0 1
    outer loop
      vertex 0.0271336 -0.0425913 0.053
      vertex 0.0289656 -0.0413672 0.053
      vertex 0 0 0.053
    endloop
  endfacet
  facet normal 0 0 1
    outer loop
      vertex 0.0289656 -0.0413672 0.053
      vertex 0.0307425 -0.0400643 0.053
      vertex 0 0 0.053
    endloop
  endfacet
  facet normal 0 0 1
    outer loop
      vertex 0 0 0.053
      vertex 0.0307425 -0.0400643 0.053
      vertex 0.0324608 -0.0386852 0.053
    endloop
  endfacet
  facet normal 0 0 1
    outer loop
      vertex 0.0213422 -0.0457685 0.053
      vertex 0.0233183 -0.044794 0.053
      vertex 0 0 0.053
    endloop
  endfacet
  facet normal 0 0 1
    outer loop
      vertex 0.0233183 -0.044794 0.053
      vertex 0.02525 -0.0437343 0.053
      vertex 0 0 0.053
    endloop
  endfacet
  facet normal 0 0 1
    outer loop
      vertex 0 0 0.053
      vertex 0.02525 -0.0437343 0.053
      vertex 0.0271336 -0.0425913 0.053
    endloop
  endfacet
  facet normal 0 0 1
    outer loop
      vertex 0.0151856 -0.0481627 0.053
      vertex 0.017272 -0.0474545 0.053
      vertex 0 0 0.053
    endloop
  endfacet
  facet normal 0 0 1
    outer loop
      vertex 0.017272 -0.0474545 0.053
      vertex 0.0193255 -0.0466559 0.053
      vertex 0 0 0.053
    endloop
  endfacet
  facet normal 0 0 1
    outer loop
      vertex 0 0 0.053
      vertex 0.0193255 -0.0466559 0.053
      vertex 0.0213422 -0.0457685 0.053
    endloop
  endfacet
  facet normal 0 0 1
    outer loop
      vertex 0.00876923 -0.0497328 0.053
      vertex 0.0109302 -0.0493029 0.053
      vertex 0 0 0.053
    endloop
  endfacet
  facet normal 0 0 1
    outer loop
      vertex 0.0109302 -0.0493029 0.053
      vertex 0.0130704 -0.0487793 0.053
      vertex 0 0 0.053
    endloop
  endfacet
  facet normal 0 0 1
    outer loop
      vertex 0 0 0.053
      vertex 0.0130704 -0.0487793 0.053
      vertex 0.0151856 -0.0481627 0.053
    endloop
  endfacet
  facet normal 0 0 1
    outer loop
      vertex 0.00220278 -0.0504519 0.053
      vertex 0.00440136 -0.0503078 0.053
      vertex 0 0 0.053
    endloop
  endfacet
  facet normal 0 0 1
    outer loop
      vertex 0.00440136 -0.0503078 0.053
      vertex 0.00659157 -0.050068 0.053
      vertex 0 0 0.053
    endloop
  endfacet
  facet normal 0 0 1
    outer loop
      vertex 0 0 0.053
      vertex 0.00659157 -0.050068 0.053
      vertex 0.00876923 -0.0497328 0.053
    endloop
  endfacet
  facet normal 0 0 1
    outer loop
      vertex -0.00440136 -0.0503078 0.053
      vertex -0.00220278 -0.0504519 0.053
      vertex 0 0 0.053
    endloop
  endfacet
  facet normal 0 0 1
    outer loop
      vertex -0.00220278 -0.0504519 0.053
      vertex 1.47174e-17 -0.0505 0.053
      vertex 0 0 0.053
    endloop
  endfacet
  facet normal 0 0 1
    outer loop
      vertex 0 0 0.053
      vertex 1.47174e-17 -0.0505 0.053
      vertex 0.00220278 -0.0504519 0.053
    endloop
  endfacet
  facet normal 0 0 1
    outer loop
      vertex -0.0109302 -0.0493029 0.053
      vertex -0.00876923 -0.0497328 0.053
      vertex 0 0 0.053
    endloop
  endfacet
  facet normal 0 0 1
    outer loop
      vertex -0.00876923 -0.0497328 0.053
      vertex -0.00659157 -0.050068 0.053
      vertex 0 0 0.053
    endloop
  endfacet
  facet normal 0 0 1
    outer loop
      vertex 0 0 0.053
      vertex -0.00659157 -0.050068 0.053
      vertex -0.00440136 -0.0503078 0.053
    endloop
  endfacet
  facet normal 0 0 1
    outer loop
      vertex -0.017272 -0.0474545 0.053
      vertex -0.0151856 -0.0481627 0.053
      vertex 0 0 0.053
    endloop
  endfacet
  facet normal 0 0 1
    outer loop
      vertex -0.0151856 -0.0481627 0.053
      vertex -0.0130704 -0.0487793 0.053
      vertex 0 0 0.053
    endloop
  endfacet
  facet normal 0 0 1
    outer loop
      vertex 0 0 0.053
      vertex -0.0130704 -0.0487793 0.053
      vertex -0.0109302 -0.0493029 0.053
    endloop
  endfacet
  facet normal 0 0 1
    outer loop
      vertex -0.0233183 -0.044794 0.053
      vertex -0.0213422 -0.0457685 0.053
      vertex 0 0 0.053
    endloop
  endfacet
  facet normal 0 0 1
    outer loop
      vertex -0.0213422 -0.0457685 0.053
      vertex -0.0193255 -0.0466559 0.053
      vertex 0 0 0.053
    endloop
  endfacet
  facet normal 0 0 1
    outer loop
      vertex 0 0 0.053
      vertex -0.0193255 -0.0466559 0.053
      vertex -0.017272 -0.0474545 0.053
    endloop
  endfacet
  facet normal 0 0 1
    outer loop
      vertex -0.0289656 -0.0413672 0.053
      vertex -0.0271336 -0.0425913 0.053
      vertex 0 0 0.053
    endloop
  endfacet
  facet normal 0 0 1
    outer loop
      vertex -0.0271336 -0.0425913 0.053
      vertex -0.02525 -0.0437343 0.053
      vertex 0 0 0.053
    endloop
  endfacet
  facet normal 0 0 1
    outer loop
      vertex 0 0 0.053
      vertex -0.02525 -0.0437343 0.053
      vertex -0.0233183 -0.044794 0.053
    endloop
  endfacet
  facet normal 0 0 1
    outer loop
      vertex -0.0341173 -0.0372325 0.053
      vertex -0.0324608 -0.0386852 0.053
      vertex 0 0 0.053
    endloop
  endfacet
  facet normal 0 0 1
    outer loop
      vertex -0.0324608 -0.0386852 0.053
      vertex -0.0307425 -0.0400643 0.053
      vertex 0 0 0.053
    endloop
  endfacet
  facet normal 0 0 1
    outer loop
      vertex 0 0 0.053
      vertex -0.0307425 -0.0400643 0.053
      vertex -0.0289656 -0.0413672 0.053
    endloop
  endfacet
  facet normal 0 0 1
    outer loop
      vertex -0.0386852 -0.0324608 0.053
      vertex -0.0372325 -0.0341173 0.053
      vertex 0 0 0.053
    endloop
  endfacet
  facet normal 0 0 1
    outer loop
      vertex -0.0372325 -0.0341173 0.053
      vertex -0.0357089 -0.0357089 0.053
      vertex 0 0 0.053
    endloop
  endfacet
  facet normal 0 0 1
    outer loop
      vertex 0 0 0.053
      vertex -0.0357089 -0.0357089 0.053
      vertex -0.0341173 -0.0372325 0.053
    endloop
  endfacet
  facet normal 0 0 1
    outer loop
      vertex -0.0425913 -0.0271336 0.053
      vertex -0.0413672 -0.0289656 0.053
      vertex 0 0 0.053
    endloop
  endfacet
  facet normal 0 0 1
    outer loop
      vertex -0.0413672 -0.0289656 0.053
      vertex -0.0400643 -0.0307425 0.053
      vertex 0 0 0.053
    endloop
  endfacet
  facet normal 0 0 1
    outer loop
      vertex 0 0 0.053
      vertex -0.0400643 -0.0307425 0.053
      vertex -0.0386852 -0.0324608 0.053
    endloop
  endfacet
  facet normal 0 0 1
    outer loop
      vertex -0.0457685 -0.0213422 0.053
      vertex -0.044794 -0.0233183 0.053
      vertex 0 0 0.053
    endloop
  endfacet
  facet normal 0 0 1
    outer loop
      vertex -0.044794 -0.0233183 0.053
      vertex -0.0437343 -0.02525 0.053
      vertex 0 0 0.053
    endloop
  endfacet
  facet normal 0 0 1
    outer loop
      vertex 0 0 0.053
      vertex -0.0437343 -0.02525 0.053
      vertex -0.0425913 -0.0271336 0.053
    endloop
  endfacet
  facet normal 0 0 1
    outer loop
      vertex -0.0481627 -0.0151856 0.053
      vertex -0.0474545 -0.017272 0.053
      vertex 0 0 0.053
    endloop
  endfacet
  facet normal 0 0 1
    outer loop
      vertex -0.0474545 -0.017272 0.053
      vertex -0.0466559 -0.0193255 0.053
      vertex 0 0 0.053
    endloop
  endfacet
  facet normal 0 0 1
    outer loop
      vertex 0 0 0.053
      vertex -0.0466559 -0.0193255 0.053
      vertex -0.0457685 -0.0213422 0.053
    endloop
  endfacet
  facet normal 0 0 1
    outer loop
      vertex -0.0497328 -0.00876923 0.053
      vertex -0.0493029 -0.0109302 0.053
      vertex 0 0 0.053
    endloop
  endfacet
  facet normal 0 0 1
    outer loop
      vertex -0.0493029 -0.0109302 0.053
      vertex -0.0487793 -0.0130704 0.053
      vertex 0 0 0.053
    endloop
  endfacet
  facet normal 0 0 1
    outer loop
      vertex 0 0 0.053
      vertex -0.0487793 -0.0130704 0.053
      vertex -0.0481627 -0.0151856 0.053
    endloop
  endfacet
  facet normal 0 0 1
    outer loop
      vertex -0.0504519 -0.00220278 0.053
      vertex -0.0503078 -0.00440136 0.053
      vertex 0 0 0.053
    endloop
  endfacet
  facet normal 0 0 1
    outer loop
      vertex -0.0503078 -0.00440136 0.053
      vertex -0.050068 -0.00659157 0.053
      vertex 0 0 0.053
    endloop
  endfacet
  facet normal 0 0 1
    outer loop
      vertex 0 0 0.053
      vertex -0.050068 -0.00659157 0.053
      vertex -0.0497328 -0.00876923 0.053
    endloop
  endfacet
endsolid outletTop
