solid plane
  facet normal 0 0 1
    outer loop
      vertex -0.000286788 -0.000409576 0.003
      vertex -0.0289656 -0.0413672 0.003
      vertex -0.00026865 -0.000421696 0.003
    endloop
  endfacet
  facet normal 0 0 1
    outer loop
      vertex -0.0289656 -0.0413672 0.003
      vertex -0.0271336 -0.0425913 0.003
      vertex -0.00026865 -0.000421696 0.003
    endloop
  endfacet
  facet normal 0 0 1
    outer loop
      vertex -0.00026865 -0.000421696 0.003
      vertex -0.0271336 -0.0425913 0.003
      vertex -0.00025 -0.000433013 0.003
    endloop
  endfacet
  facet normal 0 0 1
    outer loop
      vertex -0.0271336 -0.0425913 0.003
      vertex -0.02525 -0.0437343 0.003
      vertex -0.00025 -0.000433013 0.003
    endloop
  endfacet
  facet normal 0 0 1
    outer loop
      vertex -0.00025 -0.000433013 0.003
      vertex -0.02525 -0.0437343 0.003
      vertex -0.000230874 -0.000443505 0.003
    endloop
  endfacet
  facet normal 0 0 1
    outer loop
      vertex -0.02525 -0.0437343 0.003
      vertex -0.0233183 -0.044794 0.003
      vertex -0.000230874 -0.000443505 0.003
    endloop
  endfacet
  facet normal 0 0 1
    outer loop
      vertex -0.000230874 -0.000443505 0.003
      vertex -0.0233183 -0.044794 0.003
      vertex -0.000211309 -0.000453154 0.003
    endloop
  endfacet
  facet normal 0 0 1
    outer loop
      vertex -0.0233183 -0.044794 0.003
      vertex -0.0213422 -0.0457685 0.003
      vertex -0.000211309 -0.000453154 0.003
    endloop
  endfacet
  facet normal 0 0 1
    outer loop
      vertex -0.000211309 -0.000453154 0.003
      vertex -0.0213422 -0.0457685 0.003
      vertex -0.000191342 -0.00046194 0.003
    endloop
  endfacet
  facet normal 0 0 1
    outer loop
      vertex -0.0213422 -0.0457685 0.003
      vertex -0.0193255 -0.0466559 0.003
      vertex -0.000191342 -0.00046194 0.003
    endloop
  endfacet
  facet normal 0 0 1
    outer loop
      vertex -0.000191342 -0.00046194 0.003
      vertex -0.0193255 -0.0466559 0.003
      vertex -0.00017101 -0.000469846 0.003
    endloop
  endfacet
  facet normal 0 0 1
    outer loop
      vertex -0.0193255 -0.0466559 0.003
      vertex -0.017272 -0.0474545 0.003
      vertex -0.00017101 -0.000469846 0.003
    endloop
  endfacet
  facet normal 0 0 1
    outer loop
      vertex -0.00017101 -0.000469846 0.003
      vertex -0.017272 -0.0474545 0.003
      vertex -0.000150353 -0.000476858 0.003
    endloop
  endfacet
  facet normal 0 0 1
    outer loop
      vertex -0.017272 -0.0474545 0.003
      vertex -0.0151856 -0.0481627 0.003
      vertex -0.000150353 -0.000476858 0.003
    endloop
  endfacet
  facet normal 0 0 1
    outer loop
      vertex -0.000150353 -0.000476858 0.003
      vertex -0.0151856 -0.0481627 0.003
      vertex -0.00012941 -0.000482963 0.003
    endloop
  endfacet
  facet normal 0 0 1
    outer loop
      vertex -0.0151856 -0.0481627 0.003
      vertex -0.0130704 -0.0487793 0.003
      vertex -0.00012941 -0.000482963 0.003
    endloop
  endfacet
  facet normal 0 0 1
    outer loop
      vertex -0.00012941 -0.000482963 0.003
      vertex -0.0130704 -0.0487793 0.003
      vertex -0.00010822 -0.000488148 0.003
    endloop
  endfacet
  facet normal 0 0 1
    outer loop
      vertex -0.0130704 -0.0487793 0.003
      vertex -0.0109302 -0.0493029 0.003
      vertex -0.00010822 -0.000488148 0.003
    endloop
  endfacet
  facet normal 0 0 1
    outer loop
      vertex -0.00010822 -0.000488148 0.003
      vertex -0.0109302 -0.0493029 0.003
      vertex -8.68241e-5 -0.000492404 0.003
    endloop
  endfacet
  facet normal 0 0 1
    outer loop
      vertex -0.0109302 -0.0493029 0.003
      vertex -0.00876923 -0.0497328 0.003
      vertex -8.68241e-5 -0.000492404 0.003
    endloop
  endfacet
  facet normal 0 0 1
    outer loop
      vertex -8.68241e-5 -0.000492404 0.003
      vertex -0.00876923 -0.0497328 0.003
      vertex -6.52631e-5 -0.000495722 0.003
    endloop
  endfacet
  facet normal 0 0 1
    outer loop
      vertex -0.00876923 -0.0497328 0.003
      vertex -0.00659157 -0.050068 0.003
      vertex -6.52631e-5 -0.000495722 0.003
    endloop
  endfacet
  facet normal 0 0 1
    outer loop
      vertex -6.52631e-5 -0.000495722 0.003
      vertex -0.00659157 -0.050068 0.003
      vertex -4.35779e-5 -0.000498097 0.003
    endloop
  endfacet
  facet normal 0 0 1
    outer loop
      vertex -0.00659157 -0.050068 0.003
      vertex -0.00440136 -0.0503078 0.003
      vertex -4.35779e-5 -0.000498097 0.003
    endloop
  endfacet
  facet normal 0 0 1
    outer loop
      vertex -4.35779e-5 -0.000498097 0.003
      vertex -0.00440136 -0.0503078 0.003
      vertex -2.18097e-5 -0.000499524 0.003
    endloop
  endfacet
  facet normal 0 0 1
    outer loop
      vertex -0.00440136 -0.0503078 0.003
      vertex -0.00220278 -0.0504519 0.003
      vertex -2.18097e-5 -0.000499524 0.003
    endloop
  endfacet
  facet normal 0 0 1
    outer loop
      vertex -2.18097e-5 -0.000499524 0.003
      vertex -0.00220278 -0.0504519 0.003
      vertex 0 -0.0005 0.003
    endloop
  endfacet
  facet normal 0 0 1
    outer loop
      vertex -0.00220278 -0.0504519 0.003
      vertex 1.47451e-17 -0.0505 0.003
      vertex 0 -0.0005 0.003
    endloop
  endfacet
  facet normal 0 0 1
    outer loop
      vertex 0 -0.0005 0.003
      vertex 1.47451e-17 -0.0505 0.003
      vertex 2.18097e-5 -0.000499524 0.003
    endloop
  endfacet
  facet normal 0 0 1
    outer loop
      vertex 1.47451e-17 -0.0505 0.003
      vertex 0.00220278 -0.0504519 0.003
      vertex 2.18097e-5 -0.000499524 0.003
    endloop
  endfacet
  facet normal 0 0 1
    outer loop
      vertex 2.18097e-5 -0.000499524 0.003
      vertex 0.00220278 -0.0504519 0.003
      vertex 4.35779e-5 -0.000498097 0.003
    endloop
  endfacet
  facet normal 0 0 1
    outer loop
      vertex 0.00220278 -0.0504519 0.003
      vertex 0.00440136 -0.0503078 0.003
      vertex 4.35779e-5 -0.000498097 0.003
    endloop
  endfacet
  facet normal 0 0 1
    outer loop
      vertex 4.35779e-5 -0.000498097 0.003
      vertex 0.00440136 -0.0503078 0.003
      vertex 6.52631e-5 -0.000495722 0.003
    endloop
  endfacet
  facet normal 0 0 1
    outer loop
      vertex 0.00440136 -0.0503078 0.003
      vertex 0.00659157 -0.050068 0.003
      vertex 6.52631e-5 -0.000495722 0.003
    endloop
  endfacet
  facet normal 0 0 1
    outer loop
      vertex 6.52631e-5 -0.000495722 0.003
      vertex 0.00659157 -0.050068 0.003
      vertex 8.68241e-5 -0.000492404 0.003
    endloop
  endfacet
  facet normal 0 0 1
    outer loop
      vertex 0.00659157 -0.050068 0.003
      vertex 0.00876923 -0.0497328 0.003
      vertex 8.68241e-5 -0.000492404 0.003
    endloop
  endfacet
  facet normal 0 0 1
    outer loop
      vertex 8.68241e-5 -0.000492404 0.003
      vertex 0.00876923 -0.0497328 0.003
      vertex 0.00010822 -0.000488148 0.003
    endloop
  endfacet
  facet normal 0 0 1
    outer loop
      vertex 0.00876923 -0.0497328 0.003
      vertex 0.0109302 -0.0493029 0.003
      vertex 0.00010822 -0.000488148 0.003
    endloop
  endfacet
  facet normal 0 0 1
    outer loop
      vertex 0.00010822 -0.000488148 0.003
      vertex 0.0109302 -0.0493029 0.003
      vertex 0.00012941 -0.000482963 0.003
    endloop
  endfacet
  facet normal 0 0 1
    outer loop
      vertex 0.0109302 -0.0493029 0.003
      vertex 0.0130704 -0.0487793 0.003
      vertex 0.00012941 -0.000482963 0.003
    endloop
  endfacet
  facet normal 0 0 1
    outer loop
      vertex 0.00012941 -0.000482963 0.003
      vertex 0.0130704 -0.0487793 0.003
      vertex 0.000150353 -0.000476858 0.003
    endloop
  endfacet
  facet normal 0 0 1
    outer loop
      vertex 0.0130704 -0.0487793 0.003
      vertex 0.0151856 -0.0481627 0.003
      vertex 0.000150353 -0.000476858 0.003
    endloop
  endfacet
  facet normal 0 0 1
    outer loop
      vertex 0.000150353 -0.000476858 0.003
      vertex 0.0151856 -0.0481627 0.003
      vertex 0.00017101 -0.000469846 0.003
    endloop
  endfacet
  facet normal 0 0 1
    outer loop
      vertex 0.0151856 -0.0481627 0.003
      vertex 0.017272 -0.0474545 0.003
      vertex 0.00017101 -0.000469846 0.003
    endloop
  endfacet
  facet normal 0 0 1
    outer loop
      vertex 0.00017101 -0.000469846 0.003
      vertex 0.017272 -0.0474545 0.003
      vertex 0.000191342 -0.00046194 0.003
    endloop
  endfacet
  facet normal 0 0 1
    outer loop
      vertex 0.017272 -0.0474545 0.003
      vertex 0.0193255 -0.0466559 0.003
      vertex 0.000191342 -0.00046194 0.003
    endloop
  endfacet
  facet normal 0 0 1
    outer loop
      vertex 0.000191342 -0.00046194 0.003
      vertex 0.0193255 -0.0466559 0.003
      vertex 0.000211309 -0.000453154 0.003
    endloop
  endfacet
  facet normal 0 0 1
    outer loop
      vertex 0.0193255 -0.0466559 0.003
      vertex 0.0213422 -0.0457685 0.003
      vertex 0.000211309 -0.000453154 0.003
    endloop
  endfacet
  facet normal 0 0 1
    outer loop
      vertex 0.000211309 -0.000453154 0.003
      vertex 0.0213422 -0.0457685 0.003
      vertex 0.000230874 -0.000443505 0.003
    endloop
  endfacet
  facet normal 0 0 1
    outer loop
      vertex 0.0213422 -0.0457685 0.003
      vertex 0.0233183 -0.044794 0.003
      vertex 0.000230874 -0.000443505 0.003
    endloop
  endfacet
  facet normal 0 0 1
    outer loop
      vertex 0.000230874 -0.000443505 0.003
      vertex 0.0233183 -0.044794 0.003
      vertex 0.00025 -0.000433013 0.003
    endloop
  endfacet
  facet normal 0 0 1
    outer loop
      vertex 0.0233183 -0.044794 0.003
      vertex 0.02525 -0.0437343 0.003
      vertex 0.00025 -0.000433013 0.003
    endloop
  endfacet
  facet normal 0 0 1
    outer loop
      vertex 0.00025 -0.000433013 0.003
      vertex 0.02525 -0.0437343 0.003
      vertex 0.00026865 -0.000421696 0.003
    endloop
  endfacet
  facet normal 0 0 1
    outer loop
      vertex 0.02525 -0.0437343 0.003
      vertex 0.0271336 -0.0425913 0.003
      vertex 0.00026865 -0.000421696 0.003
    endloop
  endfacet
  facet normal 0 0 1
    outer loop
      vertex 0.00026865 -0.000421696 0.003
      vertex 0.0271336 -0.0425913 0.003
      vertex 0.000286788 -0.000409576 0.003
    endloop
  endfacet
  facet normal 0 0 1
    outer loop
      vertex 0.0271336 -0.0425913 0.003
      vertex 0.0289656 -0.0413672 0.003
      vertex 0.000286788 -0.000409576 0.003
    endloop
  endfacet
  facet normal 0 0 1
    outer loop
      vertex 0.000286788 -0.000409576 0.003
      vertex 0.0289656 -0.0413672 0.003
      vertex 0.000304381 -0.000396677 0.003
    endloop
  endfacet
  facet normal 0 0 1
    outer loop
      vertex 0.0289656 -0.0413672 0.003
      vertex 0.0307425 -0.0400643 0.003
      vertex 0.000304381 -0.000396677 0.003
    endloop
  endfacet
  facet normal 0 0 1
    outer loop
      vertex 0.000304381 -0.000396677 0.003
      vertex 0.0307425 -0.0400643 0.003
      vertex 0.000321394 -0.000383022 0.003
    endloop
  endfacet
  facet normal 0 0 1
    outer loop
      vertex 0.0307425 -0.0400643 0.003
      vertex 0.0324608 -0.0386852 0.003
      vertex 0.000321394 -0.000383022 0.003
    endloop
  endfacet
  facet normal 0 0 1
    outer loop
      vertex 0.000321394 -0.000383022 0.003
      vertex 0.0324608 -0.0386852 0.003
      vertex 0.000337795 -0.000368639 0.003
    endloop
  endfacet
  facet normal 0 0 1
    outer loop
      vertex 0.0324608 -0.0386852 0.003
      vertex 0.0341173 -0.0372325 0.003
      vertex 0.000337795 -0.000368639 0.003
    endloop
  endfacet
  facet normal 0 0 1
    outer loop
      vertex 0.000337795 -0.000368639 0.003
      vertex 0.0341173 -0.0372325 0.003
      vertex 0.000353553 -0.000353553 0.003
    endloop
  endfacet
  facet normal 0 0 1
    outer loop
      vertex 0.0341173 -0.0372325 0.003
      vertex 0.0357089 -0.0357089 0.003
      vertex 0.000353553 -0.000353553 0.003
    endloop
  endfacet
  facet normal 0 0 1
    outer loop
      vertex 0.000353553 -0.000353553 0.003
      vertex 0.0357089 -0.0357089 0.003
      vertex 0.000368639 -0.000337795 0.003
    endloop
  endfacet
  facet normal 0 0 1
    outer loop
      vertex 0.0357089 -0.0357089 0.003
      vertex 0.0372325 -0.0341173 0.003
      vertex 0.000368639 -0.000337795 0.003
    endloop
  endfacet
  facet normal 0 0 1
    outer loop
      vertex 0.000368639 -0.000337795 0.003
      vertex 0.0372325 -0.0341173 0.003
      vertex 0.000383022 -0.000321394 0.003
    endloop
  endfacet
  facet normal 0 0 1
    outer loop
      vertex 0.0372325 -0.0341173 0.003
      vertex 0.0386852 -0.0324608 0.003
      vertex 0.000383022 -0.000321394 0.003
    endloop
  endfacet
  facet normal 0 0 1
    outer loop
      vertex 0.000383022 -0.000321394 0.003
      vertex 0.0386852 -0.0324608 0.003
      vertex 0.000396677 -0.000304381 0.003
    endloop
  endfacet
  facet normal 0 0 1
    outer loop
      vertex 0.0386852 -0.0324608 0.003
      vertex 0.0400643 -0.0307425 0.003
      vertex 0.000396677 -0.000304381 0.003
    endloop
  endfacet
  facet normal 0 0 1
    outer loop
      vertex 0.000396677 -0.000304381 0.003
      vertex 0.0400643 -0.0307425 0.003
      vertex 0.000409576 -0.000286788 0.003
    endloop
  endfacet
  facet normal 0 0 1
    outer loop
      vertex 0.0400643 -0.0307425 0.003
      vertex 0.0413672 -0.0289656 0.003
      vertex 0.000409576 -0.000286788 0.003
    endloop
  endfacet
  facet normal 0 0 1
    outer loop
      vertex 0.000409576 -0.000286788 0.003
      vertex 0.0413672 -0.0289656 0.003
      vertex 0.000421696 -0.00026865 0.003
    endloop
  endfacet
  facet normal 0 0 1
    outer loop
      vertex 0.0413672 -0.0289656 0.003
      vertex 0.0425913 -0.0271336 0.003
      vertex 0.000421696 -0.00026865 0.003
    endloop
  endfacet
  facet normal 0 0 1
    outer loop
      vertex 0.000421696 -0.00026865 0.003
      vertex 0.0425913 -0.0271336 0.003
      vertex 0.000433013 -0.00025 0.003
    endloop
  endfacet
  facet normal 0 0 1
    outer loop
      vertex 0.0425913 -0.0271336 0.003
      vertex 0.0437343 -0.02525 0.003
      vertex 0.000433013 -0.00025 0.003
    endloop
  endfacet
  facet normal 0 0 1
    outer loop
      vertex 0.000433013 -0.00025 0.003
      vertex 0.0437343 -0.02525 0.003
      vertex 0.000443505 -0.000230874 0.003
    endloop
  endfacet
  facet normal 0 0 1
    outer loop
      vertex 0.0437343 -0.02525 0.003
      vertex 0.044794 -0.0233183 0.003
      vertex 0.000443505 -0.000230874 0.003
    endloop
  endfacet
  facet normal 0 0 1
    outer loop
      vertex 0.000443505 -0.000230874 0.003
      vertex 0.044794 -0.0233183 0.003
      vertex 0.000453154 -0.000211309 0.003
    endloop
  endfacet
  facet normal 0 0 1
    outer loop
      vertex 0.044794 -0.0233183 0.003
      vertex 0.0457685 -0.0213422 0.003
      vertex 0.000453154 -0.000211309 0.003
    endloop
  endfacet
  facet normal 0 0 1
    outer loop
      vertex 0.000453154 -0.000211309 0.003
      vertex 0.0457685 -0.0213422 0.003
      vertex 0.00046194 -0.000191342 0.003
    endloop
  endfacet
  facet normal 0 0 1
    outer loop
      vertex 0.0457685 -0.0213422 0.003
      vertex 0.0466559 -0.0193255 0.003
      vertex 0.00046194 -0.000191342 0.003
    endloop
  endfacet
  facet normal 0 0 1
    outer loop
      vertex 0.00046194 -0.000191342 0.003
      vertex 0.0466559 -0.0193255 0.003
      vertex 0.000469846 -0.00017101 0.003
    endloop
  endfacet
  facet normal 0 0 1
    outer loop
      vertex 0.0466559 -0.0193255 0.003
      vertex 0.0474545 -0.017272 0.003
      vertex 0.000469846 -0.00017101 0.003
    endloop
  endfacet
  facet normal 0 0 1
    outer loop
      vertex 0.000469846 -0.00017101 0.003
      vertex 0.0474545 -0.017272 0.003
      vertex 0.000476858 -0.000150353 0.003
    endloop
  endfacet
  facet normal 0 0 1
    outer loop
      vertex 0.0474545 -0.017272 0.003
      vertex 0.0481627 -0.0151856 0.003
      vertex 0.000476858 -0.000150353 0.003
    endloop
  endfacet
  facet normal 0 0 1
    outer loop
      vertex 0.000476858 -0.000150353 0.003
      vertex 0.0481627 -0.0151856 0.003
      vertex 0.000482963 -0.00012941 0.003
    endloop
  endfacet
  facet normal 0 0 1
    outer loop
      vertex 0.0481627 -0.0151856 0.003
      vertex 0.0487793 -0.0130704 0.003
      vertex 0.000482963 -0.00012941 0.003
    endloop
  endfacet
  facet normal 0 0 1
    outer loop
      vertex 0.000482963 -0.00012941 0.003
      vertex 0.0487793 -0.0130704 0.003
      vertex 0.000488148 -0.00010822 0.003
    endloop
  endfacet
  facet normal 0 0 1
    outer loop
      vertex 0.0487793 -0.0130704 0.003
      vertex 0.0493029 -0.0109302 0.003
      vertex 0.000488148 -0.00010822 0.003
    endloop
  endfacet
  facet normal 0 0 1
    outer loop
      vertex 0.000488148 -0.00010822 0.003
      vertex 0.0493029 -0.0109302 0.003
      vertex 0.000492404 -8.68241e-5 0.003
    endloop
  endfacet
  facet normal 0 0 1
    outer loop
      vertex 0.0493029 -0.0109302 0.003
      vertex 0.0497328 -0.00876923 0.003
      vertex 0.000492404 -8.68241e-5 0.003
    endloop
  endfacet
  facet normal 0 0 1
    outer loop
      vertex 0.000492404 -8.68241e-5 0.003
      vertex 0.0497328 -0.00876923 0.003
      vertex 0.000495722 -6.52631e-5 0.003
    endloop
  endfacet
  facet normal 0 0 1
    outer loop
      vertex 0.0497328 -0.00876923 0.003
      vertex 0.050068 -0.00659157 0.003
      vertex 0.000495722 -6.52631e-5 0.003
    endloop
  endfacet
  facet normal 0 0 1
    outer loop
      vertex 0.000495722 -6.52631e-5 0.003
      vertex 0.050068 -0.00659157 0.003
      vertex 0.000498097 -4.35779e-5 0.003
    endloop
  endfacet
  facet normal 0 0 1
    outer loop
      vertex 0.050068 -0.00659157 0.003
      vertex 0.0503078 -0.00440136 0.003
      vertex 0.000498097 -4.35779e-5 0.003
    endloop
  endfacet
  facet normal 0 0 1
    outer loop
      vertex 0.000498097 -4.35779e-5 0.003
      vertex 0.0503078 -0.00440136 0.003
      vertex 0.000499524 -2.18097e-5 0.003
    endloop
  endfacet
  facet normal 0 0 1
    outer loop
      vertex 0.0503078 -0.00440136 0.003
      vertex 0.0504519 -0.00220278 0.003
      vertex 0.000499524 -2.18097e-5 0.003
    endloop
  endfacet
  facet normal 0 0 1
    outer loop
      vertex 0.000499524 -2.18097e-5 0.003
      vertex 0.0504519 -0.00220278 0.003
      vertex 0.0005 1.45717e-19 0.003
    endloop
  endfacet
  facet normal 0 0 1
    outer loop
      vertex 0.0504519 -0.00220278 0.003
      vertex 0.0505 1.47174e-17 0.003
      vertex 0.0005 1.45717e-19 0.003
    endloop
  endfacet
  facet normal 0 0 1
    outer loop
      vertex 0.0005 1.45717e-19 0.003
      vertex 0.0505 1.47174e-17 0.003
      vertex 0.000499524 2.18097e-5 0.003
    endloop
  endfacet
  facet normal 0 0 1
    outer loop
      vertex 0.0505 1.47174e-17 0.003
      vertex 0.0504519 0.00220278 0.003
      vertex 0.000499524 2.18097e-5 0.003
    endloop
  endfacet
  facet normal 0 0 1
    outer loop
      vertex 0.000499524 2.18097e-5 0.003
      vertex 0.0504519 0.00220278 0.003
      vertex 0.000498097 4.35779e-5 0.003
    endloop
  endfacet
  facet normal 0 0 1
    outer loop
      vertex 0.0504519 0.00220278 0.003
      vertex 0.0503078 0.00440136 0.003
      vertex 0.000498097 4.35779e-5 0.003
    endloop
  endfacet
  facet normal 0 0 1
    outer loop
      vertex 0.000498097 4.35779e-5 0.003
      vertex 0.0503078 0.00440136 0.003
      vertex 0.000495722 6.52631e-5 0.003
    endloop
  endfacet
  facet normal 0 0 1
    outer loop
      vertex 0.0503078 0.00440136 0.003
      vertex 0.050068 0.00659157 0.003
      vertex 0.000495722 6.52631e-5 0.003
    endloop
  endfacet
  facet normal 0 0 1
    outer loop
      vertex 0.000495722 6.52631e-5 0.003
      vertex 0.050068 0.00659157 0.003
      vertex 0.000492404 8.68241e-5 0.003
    endloop
  endfacet
  facet normal 0 0 1
    outer loop
      vertex 0.050068 0.00659157 0.003
      vertex 0.0497328 0.00876923 0.003
      vertex 0.000492404 8.68241e-5 0.003
    endloop
  endfacet
  facet normal 0 0 1
    outer loop
      vertex 0.000492404 8.68241e-5 0.003
      vertex 0.0497328 0.00876923 0.003
      vertex 0.000488148 0.00010822 0.003
    endloop
  endfacet
  facet normal 0 0 1
    outer loop
      vertex 0.0497328 0.00876923 0.003
      vertex 0.0493029 0.0109302 0.003
      vertex 0.000488148 0.00010822 0.003
    endloop
  endfacet
  facet normal 0 0 1
    outer loop
      vertex 0.000488148 0.00010822 0.003
      vertex 0.0493029 0.0109302 0.003
      vertex 0.000482963 0.00012941 0.003
    endloop
  endfacet
  facet normal 0 0 1
    outer loop
      vertex 0.0493029 0.0109302 0.003
      vertex 0.0487793 0.0130704 0.003
      vertex 0.000482963 0.00012941 0.003
    endloop
  endfacet
  facet normal 0 0 1
    outer loop
      vertex 0.000482963 0.00012941 0.003
      vertex 0.0487793 0.0130704 0.003
      vertex 0.000476858 0.000150353 0.003
    endloop
  endfacet
  facet normal 0 0 1
    outer loop
      vertex 0.0487793 0.0130704 0.003
      vertex 0.0481627 0.0151856 0.003
      vertex 0.000476858 0.000150353 0.003
    endloop
  endfacet
  facet normal 0 0 1
    outer loop
      vertex 0.000476858 0.000150353 0.003
      vertex 0.0481627 0.0151856 0.003
      vertex 0.000469846 0.00017101 0.003
    endloop
  endfacet
  facet normal 0 0 1
    outer loop
      vertex 0.0481627 0.0151856 0.003
      vertex 0.0474545 0.017272 0.003
      vertex 0.000469846 0.00017101 0.003
    endloop
  endfacet
  facet normal 0 0 1
    outer loop
      vertex 0.000469846 0.00017101 0.003
      vertex 0.0474545 0.017272 0.003
      vertex 0.00046194 0.000191342 0.003
    endloop
  endfacet
  facet normal 0 0 1
    outer loop
      vertex 0.0474545 0.017272 0.003
      vertex 0.0466559 0.0193255 0.003
      vertex 0.00046194 0.000191342 0.003
    endloop
  endfacet
  facet normal 0 0 1
    outer loop
      vertex 0.00046194 0.000191342 0.003
      vertex 0.0466559 0.0193255 0.003
      vertex 0.000453154 0.000211309 0.003
    endloop
  endfacet
  facet normal 0 0 1
    outer loop
      vertex 0.0466559 0.0193255 0.003
      vertex 0.0457685 0.0213422 0.003
      vertex 0.000453154 0.000211309 0.003
    endloop
  endfacet
  facet normal 0 0 1
    outer loop
      vertex 0.000453154 0.000211309 0.003
      vertex 0.0457685 0.0213422 0.003
      vertex 0.000443505 0.000230874 0.003
    endloop
  endfacet
  facet normal 0 0 1
    outer loop
      vertex 0.0457685 0.0213422 0.003
      vertex 0.044794 0.0233183 0.003
      vertex 0.000443505 0.000230874 0.003
    endloop
  endfacet
  facet normal 0 0 1
    outer loop
      vertex 0.000443505 0.000230874 0.003
      vertex 0.044794 0.0233183 0.003
      vertex 0.000433013 0.00025 0.003
    endloop
  endfacet
  facet normal 0 0 1
    outer loop
      vertex 0.044794 0.0233183 0.003
      vertex 0.0437343 0.02525 0.003
      vertex 0.000433013 0.00025 0.003
    endloop
  endfacet
  facet normal 0 0 1
    outer loop
      vertex 0.000433013 0.00025 0.003
      vertex 0.0437343 0.02525 0.003
      vertex 0.000421696 0.00026865 0.003
    endloop
  endfacet
  facet normal 0 0 1
    outer loop
      vertex 0.0437343 0.02525 0.003
      vertex 0.0425913 0.0271336 0.003
      vertex 0.000421696 0.00026865 0.003
    endloop
  endfacet
  facet normal 0 0 1
    outer loop
      vertex 0.000421696 0.00026865 0.003
      vertex 0.0425913 0.0271336 0.003
      vertex 0.000409576 0.000286788 0.003
    endloop
  endfacet
  facet normal 0 0 1
    outer loop
      vertex 0.0425913 0.0271336 0.003
      vertex 0.0413672 0.0289656 0.003
      vertex 0.000409576 0.000286788 0.003
    endloop
  endfacet
  facet normal 0 0 1
    outer loop
      vertex 0.000409576 0.000286788 0.003
      vertex 0.0413672 0.0289656 0.003
      vertex 0.000396677 0.000304381 0.003
    endloop
  endfacet
  facet normal 0 0 1
    outer loop
      vertex 0.0413672 0.0289656 0.003
      vertex 0.0400643 0.0307425 0.003
      vertex 0.000396677 0.000304381 0.003
    endloop
  endfacet
  facet normal 0 0 1
    outer loop
      vertex 0.000396677 0.000304381 0.003
      vertex 0.0400643 0.0307425 0.003
      vertex 0.000383022 0.000321394 0.003
    endloop
  endfacet
  facet normal 0 0 1
    outer loop
      vertex 0.0400643 0.0307425 0.003
      vertex 0.0386852 0.0324608 0.003
      vertex 0.000383022 0.000321394 0.003
    endloop
  endfacet
  facet normal 0 0 1
    outer loop
      vertex 0.000383022 0.000321394 0.003
      vertex 0.0386852 0.0324608 0.003
      vertex 0.000368639 0.000337795 0.003
    endloop
  endfacet
  facet normal 0 0 1
    outer loop
      vertex 0.0386852 0.0324608 0.003
      vertex 0.0372325 0.0341173 0.003
      vertex 0.000368639 0.000337795 0.003
    endloop
  endfacet
  facet normal 0 0 1
    outer loop
      vertex 0.000368639 0.000337795 0.003
      vertex 0.0372325 0.0341173 0.003
      vertex 0.000353553 0.000353553 0.003
    endloop
  endfacet
  facet normal 0 0 1
    outer loop
      vertex 0.0372325 0.0341173 0.003
      vertex 0.0357089 0.0357089 0.003
      vertex 0.000353553 0.000353553 0.003
    endloop
  endfacet
  facet normal 0 0 1
    outer loop
      vertex 0.000353553 0.000353553 0.003
      vertex 0.0357089 0.0357089 0.003
      vertex 0.000337795 0.000368639 0.003
    endloop
  endfacet
  facet normal 0 0 1
    outer loop
      vertex 0.0357089 0.0357089 0.003
      vertex 0.0341173 0.0372325 0.003
      vertex 0.000337795 0.000368639 0.003
    endloop
  endfacet
  facet normal 0 0 1
    outer loop
      vertex 0.000337795 0.000368639 0.003
      vertex 0.0341173 0.0372325 0.003
      vertex 0.000321394 0.000383022 0.003
    endloop
  endfacet
  facet normal 0 0 1
    outer loop
      vertex 0.0341173 0.0372325 0.003
      vertex 0.0324608 0.0386852 0.003
      vertex 0.000321394 0.000383022 0.003
    endloop
  endfacet
  facet normal 0 0 1
    outer loop
      vertex 0.000321394 0.000383022 0.003
      vertex 0.0324608 0.0386852 0.003
      vertex 0.000304381 0.000396677 0.003
    endloop
  endfacet
  facet normal 0 0 1
    outer loop
      vertex 0.0324608 0.0386852 0.003
      vertex 0.0307425 0.0400643 0.003
      vertex 0.000304381 0.000396677 0.003
    endloop
  endfacet
  facet normal 0 0 1
    outer loop
      vertex 0.000304381 0.000396677 0.003
      vertex 0.0307425 0.0400643 0.003
      vertex 0.000286788 0.000409576 0.003
    endloop
  endfacet
  facet normal 0 0 1
    outer loop
      vertex 0.0307425 0.0400643 0.003
      vertex 0.0289656 0.0413672 0.003
      vertex 0.000286788 0.000409576 0.003
    endloop
  endfacet
  facet normal 0 0 1
    outer loop
      vertex 0.000286788 0.000409576 0.003
      vertex 0.0289656 0.0413672 0.003
      vertex 0.00026865 0.000421696 0.003
    endloop
  endfacet
  facet normal 0 0 1
    outer loop
      vertex 0.0289656 0.0413672 0.003
      vertex 0.0271336 0.0425913 0.003
      vertex 0.00026865 0.000421696 0.003
    endloop
  endfacet
  facet normal 0 0 1
    outer loop
      vertex 0.00026865 0.000421696 0.003
      vertex 0.0271336 0.0425913 0.003
      vertex 0.00025 0.000433013 0.003
    endloop
  endfacet
  facet normal 0 0 1
    outer loop
      vertex 0.0271336 0.0425913 0.003
      vertex 0.02525 0.0437343 0.003
      vertex 0.00025 0.000433013 0.003
    endloop
  endfacet
  facet normal 0 0 1
    outer loop
      vertex 0.00025 0.000433013 0.003
      vertex 0.02525 0.0437343 0.003
      vertex 0.000230874 0.000443505 0.003
    endloop
  endfacet
  facet normal 0 0 1
    outer loop
      vertex 0.02525 0.0437343 0.003
      vertex 0.0233183 0.044794 0.003
      vertex 0.000230874 0.000443505 0.003
    endloop
  endfacet
  facet normal 0 0 1
    outer loop
      vertex 0.000230874 0.000443505 0.003
      vertex 0.0233183 0.044794 0.003
      vertex 0.000211309 0.000453154 0.003
    endloop
  endfacet
  facet normal 0 0 1
    outer loop
      vertex 0.0233183 0.044794 0.003
      vertex 0.0213422 0.0457685 0.003
      vertex 0.000211309 0.000453154 0.003
    endloop
  endfacet
  facet normal 0 0 1
    outer loop
      vertex 0.000211309 0.000453154 0.003
      vertex 0.0213422 0.0457685 0.003
      vertex 0.000191342 0.00046194 0.003
    endloop
  endfacet
  facet normal 0 0 1
    outer loop
      vertex 0.0213422 0.0457685 0.003
      vertex 0.0193255 0.0466559 0.003
      vertex 0.000191342 0.00046194 0.003
    endloop
  endfacet
  facet normal 0 0 1
    outer loop
      vertex 0.000191342 0.00046194 0.003
      vertex 0.0193255 0.0466559 0.003
      vertex 0.00017101 0.000469846 0.003
    endloop
  endfacet
  facet normal 0 0 1
    outer loop
      vertex 0.0193255 0.0466559 0.003
      vertex 0.017272 0.0474545 0.003
      vertex 0.00017101 0.000469846 0.003
    endloop
  endfacet
  facet normal 0 0 1
    outer loop
      vertex 0.00017101 0.000469846 0.003
      vertex 0.017272 0.0474545 0.003
      vertex 0.000150353 0.000476858 0.003
    endloop
  endfacet
  facet normal 0 0 1
    outer loop
      vertex 0.017272 0.0474545 0.003
      vertex 0.0151856 0.0481627 0.003
      vertex 0.000150353 0.000476858 0.003
    endloop
  endfacet
  facet normal 0 0 1
    outer loop
      vertex 0.000150353 0.000476858 0.003
      vertex 0.0151856 0.0481627 0.003
      vertex 0.00012941 0.000482963 0.003
    endloop
  endfacet
  facet normal 0 0 1
    outer loop
      vertex 0.0151856 0.0481627 0.003
      vertex 0.0130704 0.0487793 0.003
      vertex 0.00012941 0.000482963 0.003
    endloop
  endfacet
  facet normal 0 0 1
    outer loop
      vertex 0.00012941 0.000482963 0.003
      vertex 0.0130704 0.0487793 0.003
      vertex 0.00010822 0.000488148 0.003
    endloop
  endfacet
  facet normal 0 0 1
    outer loop
      vertex 0.0130704 0.0487793 0.003
      vertex 0.0109302 0.0493029 0.003
      vertex 0.00010822 0.000488148 0.003
    endloop
  endfacet
  facet normal 0 0 1
    outer loop
      vertex 0.00010822 0.000488148 0.003
      vertex 0.0109302 0.0493029 0.003
      vertex 8.68241e-5 0.000492404 0.003
    endloop
  endfacet
  facet normal 0 0 1
    outer loop
      vertex 0.0109302 0.0493029 0.003
      vertex 0.00876923 0.0497328 0.003
      vertex 8.68241e-5 0.000492404 0.003
    endloop
  endfacet
  facet normal 0 0 1
    outer loop
      vertex 8.68241e-5 0.000492404 0.003
      vertex 0.00876923 0.0497328 0.003
      vertex 6.52631e-5 0.000495722 0.003
    endloop
  endfacet
  facet normal 0 0 1
    outer loop
      vertex 0.00876923 0.0497328 0.003
      vertex 0.00659157 0.050068 0.003
      vertex 6.52631e-5 0.000495722 0.003
    endloop
  endfacet
  facet normal 0 0 1
    outer loop
      vertex 6.52631e-5 0.000495722 0.003
      vertex 0.00659157 0.050068 0.003
      vertex 4.35779e-5 0.000498097 0.003
    endloop
  endfacet
  facet normal 0 0 1
    outer loop
      vertex 0.00659157 0.050068 0.003
      vertex 0.00440136 0.0503078 0.003
      vertex 4.35779e-5 0.000498097 0.003
    endloop
  endfacet
  facet normal 0 0 1
    outer loop
      vertex 4.35779e-5 0.000498097 0.003
      vertex 0.00440136 0.0503078 0.003
      vertex 2.18097e-5 0.000499524 0.003
    endloop
  endfacet
  facet normal 0 0 1
    outer loop
      vertex 0.00440136 0.0503078 0.003
      vertex 0.00220278 0.0504519 0.003
      vertex 2.18097e-5 0.000499524 0.003
    endloop
  endfacet
  facet normal 0 0 1
    outer loop
      vertex 2.18097e-5 0.000499524 0.003
      vertex 0.00220278 0.0504519 0.003
      vertex 0 0.0005 0.003
    endloop
  endfacet
  facet normal 0 0 1
    outer loop
      vertex 0.00220278 0.0504519 0.003
      vertex -1.73472e-18 0.0505 0.003
      vertex 0 0.0005 0.003
    endloop
  endfacet
  facet normal 0 0 1
    outer loop
      vertex 0 0.0005 0.003
      vertex -1.73472e-18 0.0505 0.003
      vertex -2.18097e-5 0.000499524 0.003
    endloop
  endfacet
  facet normal 0 0 1
    outer loop
      vertex -1.73472e-18 0.0505 0.003
      vertex -0.00220278 0.0504519 0.003
      vertex -2.18097e-5 0.000499524 0.003
    endloop
  endfacet
  facet normal 0 0 1
    outer loop
      vertex -2.18097e-5 0.000499524 0.003
      vertex -0.00220278 0.0504519 0.003
      vertex -4.35779e-5 0.000498097 0.003
    endloop
  endfacet
  facet normal 0 0 1
    outer loop
      vertex -0.00220278 0.0504519 0.003
      vertex -0.00440136 0.0503078 0.003
      vertex -4.35779e-5 0.000498097 0.003
    endloop
  endfacet
  facet normal 0 0 1
    outer loop
      vertex -4.35779e-5 0.000498097 0.003
      vertex -0.00440136 0.0503078 0.003
      vertex -6.52631e-5 0.000495722 0.003
    endloop
  endfacet
  facet normal 0 0 1
    outer loop
      vertex -0.00440136 0.0503078 0.003
      vertex -0.00659157 0.050068 0.003
      vertex -6.52631e-5 0.000495722 0.003
    endloop
  endfacet
  facet normal 0 0 1
    outer loop
      vertex -6.52631e-5 0.000495722 0.003
      vertex -0.00659157 0.050068 0.003
      vertex -8.68241e-5 0.000492404 0.003
    endloop
  endfacet
  facet normal 0 0 1
    outer loop
      vertex -0.00659157 0.050068 0.003
      vertex -0.00876923 0.0497328 0.003
      vertex -8.68241e-5 0.000492404 0.003
    endloop
  endfacet
  facet normal 0 0 1
    outer loop
      vertex -8.68241e-5 0.000492404 0.003
      vertex -0.00876923 0.0497328 0.003
      vertex -0.00010822 0.000488148 0.003
    endloop
  endfacet
  facet normal 0 0 1
    outer loop
      vertex -0.00876923 0.0497328 0.003
      vertex -0.0109302 0.0493029 0.003
      vertex -0.00010822 0.000488148 0.003
    endloop
  endfacet
  facet normal 0 0 1
    outer loop
      vertex -0.00010822 0.000488148 0.003
      vertex -0.0109302 0.0493029 0.003
      vertex -0.00012941 0.000482963 0.003
    endloop
  endfacet
  facet normal 0 0 1
    outer loop
      vertex -0.0109302 0.0493029 0.003
      vertex -0.0130704 0.0487793 0.003
      vertex -0.00012941 0.000482963 0.003
    endloop
  endfacet
  facet normal 0 0 1
    outer loop
      vertex -0.00012941 0.000482963 0.003
      vertex -0.0130704 0.0487793 0.003
      vertex -0.000150353 0.000476858 0.003
    endloop
  endfacet
  facet normal 0 0 1
    outer loop
      vertex -0.0130704 0.0487793 0.003
      vertex -0.0151856 0.0481627 0.003
      vertex -0.000150353 0.000476858 0.003
    endloop
  endfacet
  facet normal 0 0 1
    outer loop
      vertex -0.000150353 0.000476858 0.003
      vertex -0.0151856 0.0481627 0.003
      vertex -0.00017101 0.000469846 0.003
    endloop
  endfacet
  facet normal 0 0 1
    outer loop
      vertex -0.0151856 0.0481627 0.003
      vertex -0.017272 0.0474545 0.003
      vertex -0.00017101 0.000469846 0.003
    endloop
  endfacet
  facet normal 0 0 1
    outer loop
      vertex -0.00017101 0.000469846 0.003
      vertex -0.017272 0.0474545 0.003
      vertex -0.000191342 0.00046194 0.003
    endloop
  endfacet
  facet normal 0 0 1
    outer loop
      vertex -0.017272 0.0474545 0.003
      vertex -0.0193255 0.0466559 0.003
      vertex -0.000191342 0.00046194 0.003
    endloop
  endfacet
  facet normal 0 0 1
    outer loop
      vertex -0.000191342 0.00046194 0.003
      vertex -0.0193255 0.0466559 0.003
      vertex -0.000211309 0.000453154 0.003
    endloop
  endfacet
  facet normal 0 0 1
    outer loop
      vertex -0.0193255 0.0466559 0.003
      vertex -0.0213422 0.0457685 0.003
      vertex -0.000211309 0.000453154 0.003
    endloop
  endfacet
  facet normal 0 0 1
    outer loop
      vertex -0.000211309 0.000453154 0.003
      vertex -0.0213422 0.0457685 0.003
      vertex -0.000230874 0.000443505 0.003
    endloop
  endfacet
  facet normal 0 0 1
    outer loop
      vertex -0.0213422 0.0457685 0.003
      vertex -0.0233183 0.044794 0.003
      vertex -0.000230874 0.000443505 0.003
    endloop
  endfacet
  facet normal 0 0 1
    outer loop
      vertex -0.000230874 0.000443505 0.003
      vertex -0.0233183 0.044794 0.003
      vertex -0.00025 0.000433013 0.003
    endloop
  endfacet
  facet normal 0 0 1
    outer loop
      vertex -0.0233183 0.044794 0.003
      vertex -0.02525 0.0437343 0.003
      vertex -0.00025 0.000433013 0.003
    endloop
  endfacet
  facet normal 0 0 1
    outer loop
      vertex -0.00025 0.000433013 0.003
      vertex -0.02525 0.0437343 0.003
      vertex -0.00026865 0.000421696 0.003
    endloop
  endfacet
  facet normal 0 0 1
    outer loop
      vertex -0.02525 0.0437343 0.003
      vertex -0.0271336 0.0425913 0.003
      vertex -0.00026865 0.000421696 0.003
    endloop
  endfacet
  facet normal 0 0 1
    outer loop
      vertex -0.00026865 0.000421696 0.003
      vertex -0.0271336 0.0425913 0.003
      vertex -0.000286788 0.000409576 0.003
    endloop
  endfacet
  facet normal 0 0 1
    outer loop
      vertex -0.0271336 0.0425913 0.003
      vertex -0.0289656 0.0413672 0.003
      vertex -0.000286788 0.000409576 0.003
    endloop
  endfacet
  facet normal 0 0 1
    outer loop
      vertex -0.000286788 0.000409576 0.003
      vertex -0.0289656 0.0413672 0.003
      vertex -0.000304381 0.000396677 0.003
    endloop
  endfacet
  facet normal 0 0 1
    outer loop
      vertex -0.0289656 0.0413672 0.003
      vertex -0.0307425 0.0400643 0.003
      vertex -0.000304381 0.000396677 0.003
    endloop
  endfacet
  facet normal 0 0 1
    outer loop
      vertex -0.000304381 0.000396677 0.003
      vertex -0.0307425 0.0400643 0.003
      vertex -0.000321394 0.000383022 0.003
    endloop
  endfacet
  facet normal 0 0 1
    outer loop
      vertex -0.0307425 0.0400643 0.003
      vertex -0.0324608 0.0386852 0.003
      vertex -0.000321394 0.000383022 0.003
    endloop
  endfacet
  facet normal 0 0 1
    outer loop
      vertex -0.000321394 0.000383022 0.003
      vertex -0.0324608 0.0386852 0.003
      vertex -0.000337795 0.000368639 0.003
    endloop
  endfacet
  facet normal 0 0 1
    outer loop
      vertex -0.0324608 0.0386852 0.003
      vertex -0.0341173 0.0372325 0.003
      vertex -0.000337795 0.000368639 0.003
    endloop
  endfacet
  facet normal 0 0 1
    outer loop
      vertex -0.000337795 0.000368639 0.003
      vertex -0.0341173 0.0372325 0.003
      vertex -0.000353553 0.000353553 0.003
    endloop
  endfacet
  facet normal 0 0 1
    outer loop
      vertex -0.0341173 0.0372325 0.003
      vertex -0.0357089 0.0357089 0.003
      vertex -0.000353553 0.000353553 0.003
    endloop
  endfacet
  facet normal 0 0 1
    outer loop
      vertex -0.000353553 0.000353553 0.003
      vertex -0.0357089 0.0357089 0.003
      vertex -0.000368639 0.000337795 0.003
    endloop
  endfacet
  facet normal 0 0 1
    outer loop
      vertex -0.0357089 0.0357089 0.003
      vertex -0.0372325 0.0341173 0.003
      vertex -0.000368639 0.000337795 0.003
    endloop
  endfacet
  facet normal 0 0 1
    outer loop
      vertex -0.000368639 0.000337795 0.003
      vertex -0.0372325 0.0341173 0.003
      vertex -0.000383022 0.000321394 0.003
    endloop
  endfacet
  facet normal 0 0 1
    outer loop
      vertex -0.0372325 0.0341173 0.003
      vertex -0.0386852 0.0324608 0.003
      vertex -0.000383022 0.000321394 0.003
    endloop
  endfacet
  facet normal 0 0 1
    outer loop
      vertex -0.000383022 0.000321394 0.003
      vertex -0.0386852 0.0324608 0.003
      vertex -0.000396677 0.000304381 0.003
    endloop
  endfacet
  facet normal 0 0 1
    outer loop
      vertex -0.0386852 0.0324608 0.003
      vertex -0.0400643 0.0307425 0.003
      vertex -0.000396677 0.000304381 0.003
    endloop
  endfacet
  facet normal 0 0 1
    outer loop
      vertex -0.000396677 0.000304381 0.003
      vertex -0.0400643 0.0307425 0.003
      vertex -0.000409576 0.000286788 0.003
    endloop
  endfacet
  facet normal 0 0 1
    outer loop
      vertex -0.0400643 0.0307425 0.003
      vertex -0.0413672 0.0289656 0.003
      vertex -0.000409576 0.000286788 0.003
    endloop
  endfacet
  facet normal 0 0 1
    outer loop
      vertex -0.000409576 0.000286788 0.003
      vertex -0.0413672 0.0289656 0.003
      vertex -0.000421696 0.00026865 0.003
    endloop
  endfacet
  facet normal 0 0 1
    outer loop
      vertex -0.0413672 0.0289656 0.003
      vertex -0.0425913 0.0271336 0.003
      vertex -0.000421696 0.00026865 0.003
    endloop
  endfacet
  facet normal 0 0 1
    outer loop
      vertex -0.000421696 0.00026865 0.003
      vertex -0.0425913 0.0271336 0.003
      vertex -0.000433013 0.00025 0.003
    endloop
  endfacet
  facet normal 0 0 1
    outer loop
      vertex -0.0425913 0.0271336 0.003
      vertex -0.0437343 0.02525 0.003
      vertex -0.000433013 0.00025 0.003
    endloop
  endfacet
  facet normal 0 0 1
    outer loop
      vertex -0.000433013 0.00025 0.003
      vertex -0.0437343 0.02525 0.003
      vertex -0.000443505 0.000230874 0.003
    endloop
  endfacet
  facet normal 0 0 1
    outer loop
      vertex -0.0437343 0.02525 0.003
      vertex -0.044794 0.0233183 0.003
      vertex -0.000443505 0.000230874 0.003
    endloop
  endfacet
  facet normal 0 0 1
    outer loop
      vertex -0.000443505 0.000230874 0.003
      vertex -0.044794 0.0233183 0.003
      vertex -0.000453154 0.000211309 0.003
    endloop
  endfacet
  facet normal 0 0 1
    outer loop
      vertex -0.044794 0.0233183 0.003
      vertex -0.0457685 0.0213422 0.003
      vertex -0.000453154 0.000211309 0.003
    endloop
  endfacet
  facet normal 0 0 1
    outer loop
      vertex -0.000453154 0.000211309 0.003
      vertex -0.0457685 0.0213422 0.003
      vertex -0.00046194 0.000191342 0.003
    endloop
  endfacet
  facet normal 0 0 1
    outer loop
      vertex -0.0457685 0.0213422 0.003
      vertex -0.0466559 0.0193255 0.003
      vertex -0.00046194 0.000191342 0.003
    endloop
  endfacet
  facet normal 0 0 1
    outer loop
      vertex -0.00046194 0.000191342 0.003
      vertex -0.0466559 0.0193255 0.003
      vertex -0.000469846 0.00017101 0.003
    endloop
  endfacet
  facet normal 0 0 1
    outer loop
      vertex -0.0466559 0.0193255 0.003
      vertex -0.0474545 0.017272 0.003
      vertex -0.000469846 0.00017101 0.003
    endloop
  endfacet
  facet normal 0 0 1
    outer loop
      vertex -0.000469846 0.00017101 0.003
      vertex -0.0474545 0.017272 0.003
      vertex -0.000476858 0.000150353 0.003
    endloop
  endfacet
  facet normal 0 0 1
    outer loop
      vertex -0.0474545 0.017272 0.003
      vertex -0.0481627 0.0151856 0.003
      vertex -0.000476858 0.000150353 0.003
    endloop
  endfacet
  facet normal 0 0 1
    outer loop
      vertex -0.000476858 0.000150353 0.003
      vertex -0.0481627 0.0151856 0.003
      vertex -0.000482963 0.00012941 0.003
    endloop
  endfacet
  facet normal 0 0 1
    outer loop
      vertex -0.0481627 0.0151856 0.003
      vertex -0.0487793 0.0130704 0.003
      vertex -0.000482963 0.00012941 0.003
    endloop
  endfacet
  facet normal 0 0 1
    outer loop
      vertex -0.000482963 0.00012941 0.003
      vertex -0.0487793 0.0130704 0.003
      vertex -0.000488148 0.00010822 0.003
    endloop
  endfacet
  facet normal 0 0 1
    outer loop
      vertex -0.0487793 0.0130704 0.003
      vertex -0.0493029 0.0109302 0.003
      vertex -0.000488148 0.00010822 0.003
    endloop
  endfacet
  facet normal 0 0 1
    outer loop
      vertex -0.000488148 0.00010822 0.003
      vertex -0.0493029 0.0109302 0.003
      vertex -0.000492404 8.68241e-5 0.003
    endloop
  endfacet
  facet normal 0 0 1
    outer loop
      vertex -0.0493029 0.0109302 0.003
      vertex -0.0497328 0.00876923 0.003
      vertex -0.000492404 8.68241e-5 0.003
    endloop
  endfacet
  facet normal 0 0 1
    outer loop
      vertex -0.000492404 8.68241e-5 0.003
      vertex -0.0497328 0.00876923 0.003
      vertex -0.000495722 6.52631e-5 0.003
    endloop
  endfacet
  facet normal 0 0 1
    outer loop
      vertex -0.0497328 0.00876923 0.003
      vertex -0.050068 0.00659157 0.003
      vertex -0.000495722 6.52631e-5 0.003
    endloop
  endfacet
  facet normal 0 0 1
    outer loop
      vertex -0.000495722 6.52631e-5 0.003
      vertex -0.050068 0.00659157 0.003
      vertex -0.000498097 4.35779e-5 0.003
    endloop
  endfacet
  facet normal 0 0 1
    outer loop
      vertex -0.050068 0.00659157 0.003
      vertex -0.0503078 0.00440136 0.003
      vertex -0.000498097 4.35779e-5 0.003
    endloop
  endfacet
  facet normal 0 0 1
    outer loop
      vertex -0.000498097 4.35779e-5 0.003
      vertex -0.0503078 0.00440136 0.003
      vertex -0.000499524 2.18097e-5 0.003
    endloop
  endfacet
  facet normal 0 0 1
    outer loop
      vertex -0.0503078 0.00440136 0.003
      vertex -0.0504519 0.00220278 0.003
      vertex -0.000499524 2.18097e-5 0.003
    endloop
  endfacet
  facet normal 0 0 1
    outer loop
      vertex -0.000499524 2.18097e-5 0.003
      vertex -0.0504519 0.00220278 0.003
      vertex -0.0005 0 0.003
    endloop
  endfacet
  facet normal 0 0 1
    outer loop
      vertex -0.0504519 0.00220278 0.003
      vertex -0.0505 0 0.003
      vertex -0.0005 0 0.003
    endloop
  endfacet
  facet normal 0 0 1
    outer loop
      vertex -0.0005 0 0.003
      vertex -0.0505 0 0.003
      vertex -0.000499524 -2.18097e-5 0.003
    endloop
  endfacet
  facet normal 0 0 1
    outer loop
      vertex -0.0505 0 0.003
      vertex -0.0504519 -0.00220278 0.003
      vertex -0.000499524 -2.18097e-5 0.003
    endloop
  endfacet
  facet normal 0 0 1
    outer loop
      vertex -0.000499524 -2.18097e-5 0.003
      vertex -0.0504519 -0.00220278 0.003
      vertex -0.000498097 -4.35779e-5 0.003
    endloop
  endfacet
  facet normal 0 0 1
    outer loop
      vertex -0.0504519 -0.00220278 0.003
      vertex -0.0503078 -0.00440136 0.003
      vertex -0.000498097 -4.35779e-5 0.003
    endloop
  endfacet
  facet normal 0 0 1
    outer loop
      vertex -0.000498097 -4.35779e-5 0.003
      vertex -0.0503078 -0.00440136 0.003
      vertex -0.000495722 -6.52631e-5 0.003
    endloop
  endfacet
  facet normal 0 0 1
    outer loop
      vertex -0.0503078 -0.00440136 0.003
      vertex -0.050068 -0.00659157 0.003
      vertex -0.000495722 -6.52631e-5 0.003
    endloop
  endfacet
  facet normal 0 0 1
    outer loop
      vertex -0.000495722 -6.52631e-5 0.003
      vertex -0.050068 -0.00659157 0.003
      vertex -0.000492404 -8.68241e-5 0.003
    endloop
  endfacet
  facet normal 0 0 1
    outer loop
      vertex -0.050068 -0.00659157 0.003
      vertex -0.0497328 -0.00876923 0.003
      vertex -0.000492404 -8.68241e-5 0.003
    endloop
  endfacet
  facet normal 0 0 1
    outer loop
      vertex -0.000492404 -8.68241e-5 0.003
      vertex -0.0497328 -0.00876923 0.003
      vertex -0.000488148 -0.00010822 0.003
    endloop
  endfacet
  facet normal 0 0 1
    outer loop
      vertex -0.0497328 -0.00876923 0.003
      vertex -0.0493029 -0.0109302 0.003
      vertex -0.000488148 -0.00010822 0.003
    endloop
  endfacet
  facet normal 0 0 1
    outer loop
      vertex -0.000488148 -0.00010822 0.003
      vertex -0.0493029 -0.0109302 0.003
      vertex -0.000482963 -0.00012941 0.003
    endloop
  endfacet
  facet normal 0 0 1
    outer loop
      vertex -0.0493029 -0.0109302 0.003
      vertex -0.0487793 -0.0130704 0.003
      vertex -0.000482963 -0.00012941 0.003
    endloop
  endfacet
  facet normal 0 0 1
    outer loop
      vertex -0.000482963 -0.00012941 0.003
      vertex -0.0487793 -0.0130704 0.003
      vertex -0.000476858 -0.000150353 0.003
    endloop
  endfacet
  facet normal 0 0 1
    outer loop
      vertex -0.0487793 -0.0130704 0.003
      vertex -0.0481627 -0.0151856 0.003
      vertex -0.000476858 -0.000150353 0.003
    endloop
  endfacet
  facet normal 0 0 1
    outer loop
      vertex -0.000476858 -0.000150353 0.003
      vertex -0.0481627 -0.0151856 0.003
      vertex -0.000469846 -0.00017101 0.003
    endloop
  endfacet
  facet normal 0 0 1
    outer loop
      vertex -0.0481627 -0.0151856 0.003
      vertex -0.0474545 -0.017272 0.003
      vertex -0.000469846 -0.00017101 0.003
    endloop
  endfacet
  facet normal 0 0 1
    outer loop
      vertex -0.000469846 -0.00017101 0.003
      vertex -0.0474545 -0.017272 0.003
      vertex -0.00046194 -0.000191342 0.003
    endloop
  endfacet
  facet normal 0 0 1
    outer loop
      vertex -0.0474545 -0.017272 0.003
      vertex -0.0466559 -0.0193255 0.003
      vertex -0.00046194 -0.000191342 0.003
    endloop
  endfacet
  facet normal 0 0 1
    outer loop
      vertex -0.00046194 -0.000191342 0.003
      vertex -0.0466559 -0.0193255 0.003
      vertex -0.000453154 -0.000211309 0.003
    endloop
  endfacet
  facet normal 0 0 1
    outer loop
      vertex -0.0466559 -0.0193255 0.003
      vertex -0.0457685 -0.0213422 0.003
      vertex -0.000453154 -0.000211309 0.003
    endloop
  endfacet
  facet normal 0 0 1
    outer loop
      vertex -0.000453154 -0.000211309 0.003
      vertex -0.0457685 -0.0213422 0.003
      vertex -0.000443505 -0.000230874 0.003
    endloop
  endfacet
  facet normal 0 0 1
    outer loop
      vertex -0.0457685 -0.0213422 0.003
      vertex -0.044794 -0.0233183 0.003
      vertex -0.000443505 -0.000230874 0.003
    endloop
  endfacet
  facet normal 0 0 1
    outer loop
      vertex -0.000443505 -0.000230874 0.003
      vertex -0.044794 -0.0233183 0.003
      vertex -0.000433013 -0.00025 0.003
    endloop
  endfacet
  facet normal 0 0 1
    outer loop
      vertex -0.044794 -0.0233183 0.003
      vertex -0.0437343 -0.02525 0.003
      vertex -0.000433013 -0.00025 0.003
    endloop
  endfacet
  facet normal 0 0 1
    outer loop
      vertex -0.000433013 -0.00025 0.003
      vertex -0.0437343 -0.02525 0.003
      vertex -0.000421696 -0.00026865 0.003
    endloop
  endfacet
  facet normal 0 0 1
    outer loop
      vertex -0.0437343 -0.02525 0.003
      vertex -0.0425913 -0.0271336 0.003
      vertex -0.000421696 -0.00026865 0.003
    endloop
  endfacet
  facet normal 0 0 1
    outer loop
      vertex -0.000421696 -0.00026865 0.003
      vertex -0.0425913 -0.0271336 0.003
      vertex -0.000409576 -0.000286788 0.003
    endloop
  endfacet
  facet normal 0 0 1
    outer loop
      vertex -0.0425913 -0.0271336 0.003
      vertex -0.0413672 -0.0289656 0.003
      vertex -0.000409576 -0.000286788 0.003
    endloop
  endfacet
  facet normal 0 0 1
    outer loop
      vertex -0.000409576 -0.000286788 0.003
      vertex -0.0413672 -0.0289656 0.003
      vertex -0.000396677 -0.000304381 0.003
    endloop
  endfacet
  facet normal 0 0 1
    outer loop
      vertex -0.0413672 -0.0289656 0.003
      vertex -0.0400643 -0.0307425 0.003
      vertex -0.000396677 -0.000304381 0.003
    endloop
  endfacet
  facet normal 0 0 1
    outer loop
      vertex -0.000396677 -0.000304381 0.003
      vertex -0.0400643 -0.0307425 0.003
      vertex -0.000383022 -0.000321394 0.003
    endloop
  endfacet
  facet normal 0 0 1
    outer loop
      vertex -0.0400643 -0.0307425 0.003
      vertex -0.0386852 -0.0324608 0.003
      vertex -0.000383022 -0.000321394 0.003
    endloop
  endfacet
  facet normal 0 0 1
    outer loop
      vertex -0.000383022 -0.000321394 0.003
      vertex -0.0386852 -0.0324608 0.003
      vertex -0.000368639 -0.000337795 0.003
    endloop
  endfacet
  facet normal 0 0 1
    outer loop
      vertex -0.0386852 -0.0324608 0.003
      vertex -0.0372325 -0.0341173 0.003
      vertex -0.000368639 -0.000337795 0.003
    endloop
  endfacet
  facet normal 0 0 1
    outer loop
      vertex -0.000368639 -0.000337795 0.003
      vertex -0.0372325 -0.0341173 0.003
      vertex -0.000353553 -0.000353553 0.003
    endloop
  endfacet
  facet normal 0 0 1
    outer loop
      vertex -0.0372325 -0.0341173 0.003
      vertex -0.0357089 -0.0357089 0.003
      vertex -0.000353553 -0.000353553 0.003
    endloop
  endfacet
  facet normal 0 0 1
    outer loop
      vertex -0.000353553 -0.000353553 0.003
      vertex -0.0357089 -0.0357089 0.003
      vertex -0.000337795 -0.000368639 0.003
    endloop
  endfacet
  facet normal 0 0 1
    outer loop
      vertex -0.0357089 -0.0357089 0.003
      vertex -0.0341173 -0.0372325 0.003
      vertex -0.000337795 -0.000368639 0.003
    endloop
  endfacet
  facet normal 0 0 1
    outer loop
      vertex -0.000337795 -0.000368639 0.003
      vertex -0.0341173 -0.0372325 0.003
      vertex -0.000321394 -0.000383022 0.003
    endloop
  endfacet
  facet normal 0 0 1
    outer loop
      vertex -0.0341173 -0.0372325 0.003
      vertex -0.0324608 -0.0386852 0.003
      vertex -0.000321394 -0.000383022 0.003
    endloop
  endfacet
  facet normal 0 0 1
    outer loop
      vertex -0.000321394 -0.000383022 0.003
      vertex -0.0324608 -0.0386852 0.003
      vertex -0.000304381 -0.000396677 0.003
    endloop
  endfacet
  facet normal 0 0 1
    outer loop
      vertex -0.0324608 -0.0386852 0.003
      vertex -0.0307425 -0.0400643 0.003
      vertex -0.000304381 -0.000396677 0.003
    endloop
  endfacet
  facet normal 0 0 1
    outer loop
      vertex -0.000304381 -0.000396677 0.003
      vertex -0.0307425 -0.0400643 0.003
      vertex -0.000286788 -0.000409576 0.003
    endloop
  endfacet
  facet normal 0 0 1
    outer loop
      vertex -0.0307425 -0.0400643 0.003
      vertex -0.0289656 -0.0413672 0.003
      vertex -0.000286788 -0.000409576 0.003
    endloop
  endfacet
endsolid plane
